<?xml version="1.0" standalone="no"?>
<!DOCTYPE svg PUBLIC "-//W3C//DTD SVG 1.1//EN" "http://www.w3.org/Graphics/SVG/1.1/DTD/svg11.dtd" >
<svg>
<metadata>
Created by FontForge 20090914 at Wed Aug 24 14:13:31 2016
 By www-data
Copyright (c) 2011, Admix Designs (http://www.admixdesigns.com/) with Reserved Font Name Questrial.
</metadata>
<defs>
<font id="Questrial-Regular" horiz-adv-x="550" >
  <font-face 
    font-family="Questrial"
    font-weight="400"
    font-stretch="normal"
    units-per-em="1000"
    panose-1="2 0 0 0 0 0 0 0 0 0"
    ascent="800"
    descent="-200"
    x-height="500"
    cap-height="662"
    bbox="-72.998 -210 1152 820"
    underline-thickness="50"
    underline-position="-50"
    unicode-range="U+0020-U+FB04"
  />
<missing-glyph horiz-adv-x="524" 
d="M33 662h460v-662h-460v662zM235 331l-157 227v-454zM91 617l172 -247l171 247h-343zM263 292l-172 -247h343zM290 331l158 -227v454z" />
    <glyph glyph-name=".notdef" horiz-adv-x="524" 
d="M33 662h460v-662h-460v662zM235 331l-157 227v-454zM91 617l172 -247l171 247h-343zM263 292l-172 -247h343zM290 331l158 -227v454z" />
    <glyph glyph-name="space" unicode=" " horiz-adv-x="213" 
 />
    <glyph glyph-name="space" unicode="&#xa0;" horiz-adv-x="213" 
 />
    <glyph glyph-name="exclam" unicode="!" horiz-adv-x="221" 
d="M159 102v-102h-97v102h97zM83 183l-19 479h93l-19 -479h-55z" />
    <glyph glyph-name="quotedbl" unicode="&#x22;" horiz-adv-x="317" 
d="M117 443h-51l-19 219h89zM251 443h-51l-19 219h89z" />
    <glyph glyph-name="numbersign" unicode="#" horiz-adv-x="581" 
d="M186 442l21 143h65l-21 -143h116l21 143h65l-21 -143h104v-65h-113l-20 -144h103v-65h-112l-20 -143h-65l20 143h-116l-20 -143h-65l20 143h-103v65h112l20 144h-102v65h111zM222 233h116l20 144h-116z" />
    <glyph glyph-name="dollar" unicode="$" horiz-adv-x="636" 
d="M523 42.5c-45.333 -32.333 -107.999 -49.1699 -187.999 -50.5029v-99h-37v100c-122.667 6 -201.334 48.333 -236.001 127c-10.667 24 -17 50 -19 78h78c1.33301 -40 19 -72 53 -96c30 -21.333 71.333 -34 124 -38v243c-73.333 16.667 -124 33.667 -152 51
s-48.833 35.833 -62.5 55.5s-20.5 44.167 -20.5 73.5c0 52.667 19.5 95.834 58.5 129.501s97.833 51.5 176.5 53.5v76h37v-77c76.667 -4 135.667 -24.333 177 -61c38.667 -34.667 59.334 -77 62.001 -127h-77c-4 31.333 -18.833 58 -44.5 80s-64.834 34.667 -117.501 38
v-228c30.667 -7.33301 61.167 -15.333 91.5 -24s57.5 -20 81.5 -34c55.333 -31.333 83 -76.166 83 -134.499s-22.667 -103.666 -68 -135.999zM136.001 483.996c0 -12.667 4.33203 -24.667 12.999 -36s20.334 -21 35.001 -29c25.333 -13.333 63.333 -26.333 114 -39v220
c-61.333 -2.66699 -105.333 -16.667 -132 -42c-20 -18 -30 -42.667 -30 -74zM335 62.9961c56 0 100.167 9.66797 132.5 29.001s48.5 48.666 48.5 87.999c0 44.667 -37.333 78 -112 100l-69 18v-235z" />
    <glyph glyph-name="percent" unicode="%" horiz-adv-x="845" 
d="M342 470c0 -57.333 -13.502 -102.001 -40.502 -134.001s-63.667 -48 -110 -48s-82.833 16 -109.5 48s-40 79.167 -40 141.5s13.333 109.5 40 141.5s64.334 47.667 113.001 47s85.334 -19.167 110.001 -55.5s37 -83.166 37 -140.499zM191.998 344.999
c44.667 2 72.6689 30.668 84.002 86.001c2.66699 15.333 4 30.666 4 45.999c0 44 -7.83301 77 -23.5 99s-37.334 33 -65.001 33s-49.334 -11 -65.001 -33s-23.5 -55 -23.5 -99s7.83301 -77 23.5 -99s37.5 -33 65.5 -33zM803 174
c0 -57.333 -13.502 -102.001 -40.502 -134.001s-63.667 -48 -110 -48s-82.833 16 -109.5 48s-40 79.167 -40 141.5s13.333 109.5 40 141.5s64.334 47.667 113.001 47s85.334 -19.167 110.001 -55.5s37 -83.166 37 -140.499zM652.998 48.999
c44.667 2 72.335 30.668 83.002 86.001c3.33301 15.333 5 30.666 5 45.999c0 44 -7.83301 77 -23.5 99s-37.334 33 -65.001 33s-49.334 -11 -65.001 -33s-23.5 -55 -23.5 -99s7.83301 -77 23.5 -99s37.5 -33 65.5 -33zM682.999 670l-459 -682h-63l459 682h63z" />
    <glyph glyph-name="ampersand" unicode="&#x26;" horiz-adv-x="580" 
d="M184 656c27.333 9.33301 58.5 14 93.5 14s64.833 -4 89.5 -12s45.667 -18.667 63 -32c31.333 -24 51 -55.333 59 -94h-79c-5.33301 16 -19 31.667 -41 47s-49 23 -81 23s-57 -3 -75 -9s-33 -14.333 -45 -25c-22.667 -20 -34 -46.667 -34 -80c0 -36 13 -64 39 -84
c23.333 -17.333 53.666 -26 90.999 -26h161v44h70v-44h65v-67h-65v-127c0 -57.333 -20 -103.333 -60 -138c-40.667 -36 -96 -54 -166 -54c-63.333 0 -117.666 18.333 -162.999 55c-46 37.333 -69 85 -69 143c0 36 10.667 68 32 96s51.333 49.333 90 64
c-24.667 7.33301 -47 24 -67 50c-22 29.333 -33 58 -33 86s4.66699 53 14 75s23.333 41 42 57s41.667 28.667 69 38zM255 311c-40.667 0 -75 -12.3311 -103 -36.998c-26.667 -22.667 -40 -51.334 -40 -86.001s14.667 -64.667 44 -90c29.333 -26 67 -39 113 -39
c49.333 0 88.333 12.333 117 37c26 21.333 39 48.666 39 81.999v133h-170z" />
    <glyph glyph-name="quotesingle" unicode="'" horiz-adv-x="183" 
d="M117 443h-51l-19 219h89z" />
    <glyph glyph-name="parenleft" unicode="(" horiz-adv-x="245" 
d="M231 700c-80 -129.333 -120 -269.335 -120 -420.002s40 -290 120 -418h-68c-85.333 132.667 -128 272.334 -128 419.001s42.667 286.334 128 419.001h68z" />
    <glyph glyph-name="parenright" unicode=")" horiz-adv-x="245" 
d="M14 -138c80 128 120 267.335 120 418.002s-40 290.667 -120 420h68c85.333 -132.667 128 -272.334 128 -419.001s-42.667 -286.334 -128 -419.001h-68z" />
    <glyph glyph-name="asterisk" unicode="*" horiz-adv-x="373" 
d="M218 516l74 -82l-51 -37l-54 95l-55 -95l-51 37l74 81l-107 23l19 60l100 -45l-12 109h63l-12 -109l100 45l19 -60z" />
    <glyph glyph-name="plus" unicode="+" 
d="M500 203h-193v-203h-65v203h-192v65h192v203h65v-203h193v-65z" />
    <glyph glyph-name="comma" unicode="," horiz-adv-x="220" 
d="M69 80h98l-88 -213h-68z" />
    <glyph glyph-name="hyphen" unicode="-" horiz-adv-x="356" 
d="M53 332h250v-73h-250v73z" />
    <glyph glyph-name="period" unicode="." horiz-adv-x="203" 
d="M150 102v-102h-97v102h97z" />
    <glyph glyph-name="slash" unicode="/" horiz-adv-x="371" 
d="M335 680l-229 -712h-70l229 712h70z" />
    <glyph glyph-name="zero" unicode="0" 
d="M43 331c0 226 77.333 338.999 232 338.999c84 -1.33301 145.667 -36.666 185 -105.999c31.333 -56 47 -133.667 47 -233c0 -226 -77.333 -339 -232 -339s-232 113 -232 339zM275 64.999c88 2 138.333 59.667 151 173c4 31.333 6 62.333 6 93
c0 89.333 -12.333 156 -37 200s-64.667 66 -120 66s-95.333 -22 -120 -66s-37 -110.667 -37 -200s12.333 -156 37 -200s64.667 -66 120 -66z" />
    <glyph glyph-name="one" unicode="1" 
d="M350 662v-662h-75v590h-140v72h215z" />
    <glyph glyph-name="two" unicode="2" 
d="M499 472c0 -28.667 -8.49805 -56.333 -25.498 -83s-38.5 -51.667 -64.5 -75s-54.167 -45.333 -84.5 -66l-85.5 -60.5c-26.667 -19.667 -49.167 -39 -67.5 -58s-28.5 -38.167 -30.5 -57.5h356v-72h-445v41c0 32.667 9.16699 62.5 27.5 89.5s41.333 52.333 69 76
s57.5 46 89.5 67s61.833 42.167 89.5 63.5s50.667 43 69 65s27.5 45.667 27.5 71c0 38.667 -12.833 69 -38.5 91s-61.5 33 -107.5 33s-82.833 -9.83301 -110.5 -29.5s-44.167 -48.167 -49.5 -85.5h-75c5.33301 56 29.666 101.333 72.999 136s95.666 52 156.999 52
c70 0 125.667 -18.667 167 -56c39.333 -36 59 -83.333 59 -142z" />
    <glyph glyph-name="three" unicode="3" 
d="M380 353c38.667 -14.667 68.667 -36.501 90 -65.501s32 -59.833 32 -92.5s-5.83301 -61.167 -17.5 -85.5s-27.834 -45.166 -48.501 -62.499c-42.667 -36.667 -95.667 -55 -159 -55c-62.667 0 -116.334 17.667 -161.001 53c-44.667 36 -69.667 79.333 -75 130h76
c5.33301 -30.667 23 -56.667 53 -78c30.667 -21.333 66.334 -32 107.001 -32c46 0 83 12 111 36c26 22.667 39 51.667 39 87c0 34.667 -13.333 64 -40 88c-28 25.333 -62.333 38 -103 38h-76v69h67c34.667 0 65 10 91 30s39 46 39 78s-11 57.667 -33 77s-54.167 29 -96.5 29
s-75.666 -9.33301 -99.999 -28s-38.833 -40.667 -43.5 -66h-73c4.66699 44 25 82 61 114c40 35.333 90.333 53 151 53c64 0 115 -16.667 153 -50c37.333 -32 56 -74 56 -126c0 -30.667 -11.333 -60.667 -34 -90c-20 -27.333 -42 -44.333 -66 -51z" />
    <glyph glyph-name="four" unicode="4" 
d="M511 236v-67h-89v-169h-75v169h-316v73l278 420h113v-426h89zM347 236v362l-246 -362h246z" />
    <glyph glyph-name="five" unicode="5" 
d="M162 398c34 20.667 70.3369 31 109.004 31s71.667 -5.33301 99 -16s50.666 -25.667 69.999 -45c41.333 -40 62 -92 62 -156c0 -61.333 -21.333 -113.333 -64 -156s-95.334 -64 -158.001 -64c-76 0 -135.333 20.667 -178 62c-31.333 30 -51.333 67.333 -60 112h77
c15.333 -45.333 46.666 -76 93.999 -92c18 -6 38.833 -9 62.5 -9s44.667 3.83301 63 11.5s34.166 18.167 47.499 31.5c27.333 28.667 41 63.334 41 104.001c0 43.333 -13.667 78.666 -41 105.999s-63 41 -107 41c-30 0 -56.5 -5.5 -79.5 -16.5s-40.167 -23.167 -51.5 -36.5
l-69 42l45 314h345v-72h-277z" />
    <glyph glyph-name="six" unicode="6" 
d="M413 508c-18.667 59.333 -58.3311 89.001 -118.998 89.001c-58.667 0 -103.334 -26.333 -134.001 -79c-28 -46.667 -42 -110 -42 -190c16 28 39.5 50.667 70.5 68s63.667 26 98 26s65.166 -5.33301 92.499 -16s51 -25.334 71 -44.001c44 -41.333 66 -93 66 -155
c0 -60.667 -22.333 -112 -67 -154c-43.333 -40.667 -97 -61 -161 -61c-80.667 0 -141.667 29.167 -183 87.5s-62 142.166 -62 251.499c0 163.333 47 268.333 141 315c31.333 16 65.5 24 102.5 24s67.167 -4.66699 90.5 -14s43 -21.666 59 -36.999
c32 -29.333 52.333 -66.333 61 -111h-84zM288.003 351.001c-21.333 0 -41.167 -3.33203 -59.5 -9.99902s-34.5 -16.334 -48.5 -29.001c-30 -26 -45 -59.333 -45 -100c0 -42.667 15 -78 45 -106c28 -27.333 64 -41 108 -41c42.667 0 78.667 13.333 108 40
c30 27.333 45 61.333 45 102s-15 75 -45 103c-30 27.333 -66 41 -108 41z" />
    <glyph glyph-name="seven" unicode="7" 
d="M506 662v-85l-276 -577h-87l286 590h-382v72h459z" />
    <glyph glyph-name="eight" unicode="8" 
d="M385 364c39.333 -15.333 70.332 -38.666 92.999 -69.999s34 -63.833 34 -97.5s-5.33301 -62.667 -16 -87s-26 -45.166 -46 -62.499c-42 -36.667 -100.333 -55 -175 -55s-133 18.333 -175 55c-41.333 36 -62 83.667 -62 143c0 38 11.333 72.667 34 104
s53.667 54.666 93 69.999c-25.333 9.33301 -47.666 24.666 -66.999 45.999c-22.667 26 -34 57 -34 93c0 50 18 90.333 54 121s88.333 46 157 46s121 -15.333 157 -46s54 -71 54 -121c0 -52.667 -22.333 -93 -67 -121c-12 -8 -23.333 -14 -34 -18zM274.999 396
c35.333 0 65.667 8.00098 91 24.001c30 19.333 45 45.333 45 78s-12.667 57.5 -38 74.5s-58 25.5 -98 25.5s-72.667 -8.5 -98 -25.5s-38 -41.833 -38 -74.5s13.833 -57.834 41.5 -75.501s59.167 -26.5 94.5 -26.5zM275 64.001c50 0 89.5 11.333 118.5 34
s43.5 53.667 43.5 93c0 41.333 -16 75 -48 101c-30 23.333 -68 35 -114 35s-84 -11.667 -114 -35c-32 -26 -48 -59.167 -48 -99.5s14.5 -71.833 43.5 -94.5s68.5 -34 118.5 -34z" />
    <glyph glyph-name="nine" unicode="9" 
d="M137 154c18.667 -59.333 58.3311 -89.001 118.998 -89.001c58.667 0 103.334 26.333 134.001 79c28 46.667 42 110 42 190c-16 -28 -39.5 -50.667 -70.5 -68s-63.667 -26 -98 -26s-65.166 5.33301 -92.499 16s-51 25.334 -71 44.001c-44 41.333 -66 93 -66 155
c0 60.667 22.333 112 67 154c43.333 40.667 97 61 161 61c80.667 0 141.667 -29.167 183 -87.5s62 -142.166 62 -251.499c0 -163.333 -47 -268.333 -141 -315c-31.333 -16 -65.5 -24 -102.5 -24s-67.167 4.66699 -90.5 14s-43 21.666 -59 36.999
c-32 29.333 -52.333 66.333 -61 111h84zM261.997 310.999c20.667 0 40.333 3.33203 59 9.99902s35 16.334 49 29.001c30 26 45 59.333 45 100c0 42.667 -15 78 -45 106c-28 27.333 -64 41 -108 41c-42.667 0 -78.667 -13.333 -108 -40c-30 -27.333 -45 -61.333 -45 -102
s15 -75 45 -103c30 -27.333 66 -41 108 -41z" />
    <glyph glyph-name="colon" unicode=":" horiz-adv-x="203" 
d="M150 102v-102h-97v102h97zM150 500v-102h-97v102h97z" />
    <glyph glyph-name="semicolon" unicode=";" horiz-adv-x="245" 
d="M177 500v-102h-97v102h97zM83 80h98l-88 -213h-68z" />
    <glyph glyph-name="less" unicode="&#x3c;" 
d="M507 8l-481 212v63l481 213v-78l-405 -166l405 -166v-78z" />
    <glyph glyph-name="equal" unicode="=" 
d="M493 368v-67h-436v67h436zM57 170h436v-67h-436v67z" />
    <glyph glyph-name="greater" unicode="&#x3e;" 
d="M42 86l405 166l-405 166v78l481 -213v-63l-481 -212v78z" />
    <glyph glyph-name="question" unicode="?" horiz-adv-x="515" 
d="M465 486c0 -24 -3.99902 -45.335 -11.999 -64.002s-18.167 -35.5 -30.5 -50.5s-25.666 -28.833 -39.999 -41.5s-27.833 -26 -40.5 -40c-28 -32 -42 -67.667 -42 -107h-73c0 62 27.667 118.333 83 169c34 30 56.5 55.167 67.5 75.5s16.5 38.833 16.5 55.5s-2 31.5 -6 44.5
s-11 25.167 -21 36.5c-22.667 24.667 -56.334 37 -101.001 37c-46 0 -83.333 -13.667 -112 -41c-26.667 -25.333 -41.334 -56.666 -44.001 -93.999h-71c2.66699 56.667 23.667 104.334 63 143.001c42 40.667 94.667 61 158 61c68 0 120 -18.667 156 -56
c32.667 -34 49 -76.667 49 -128zM312.001 101.998v-102h-97v102h97z" />
    <glyph glyph-name="at" unicode="@" horiz-adv-x="852" 
d="M596 221c0 -35.333 18.0029 -52.998 54.0029 -52.998s65.5 15.667 88.5 47s34.5 81 34.5 149c0 85.333 -29.667 157.666 -89 216.999c-58.667 58.667 -130.667 88 -216 88c-50 0 -98 -10.167 -144 -30.5s-86.5 -47.833 -121.5 -82.5s-63 -75 -84 -121
s-31.5 -92.667 -31.5 -140s7.83301 -89.333 23.5 -126s37.5 -68.334 65.5 -95.001c58.667 -58 131 -87 217 -87s159 24.667 219 74l22 -30c-68 -54 -148.667 -81 -242 -81c-50 0 -96 9 -138 27s-78 42.5 -108 73.5s-53.5 67 -70.5 108s-25.5 86.667 -25.5 137
s11.167 100.666 33.5 150.999s52.666 94.666 90.999 132.999s82.833 69 133.5 92s101.334 34.5 152.001 34.5s96.667 -8.66699 138 -26s77.666 -41.166 108.999 -71.499s56.333 -66 75 -107s28 -84.167 28 -129.5s-5.33301 -83.333 -16 -114s-24.667 -56 -42 -76
c-34 -39.333 -76.667 -59 -128 -59c-38.667 0 -65.334 11.667 -80.001 35c-7.33301 10 -11.666 21.667 -12.999 35c-38 -46.667 -86.333 -70 -145 -70c-54.667 0 -97.334 15.667 -128.001 47c-28 30 -42 69.667 -42 119c0 72 22 130.667 66 176
c43.333 44.667 96.666 67 159.999 67s107.333 -23.333 132 -70l10 64h60l-47 -292c-0.666992 -1.33301 -1 -2.66602 -1 -3.99902v-9zM558.003 358.002c0 34 -9.66699 62.667 -29 86c-20 23.333 -48.667 35 -86 35c-49.333 0 -89.333 -16.667 -120 -50
c-31.333 -34 -47 -78.667 -47 -134c0 -34 10.333 -62.167 31 -84.5s53.5 -33.5 98.5 -33.5s81.667 17.667 110 53s42.5 78 42.5 128z" />
    <glyph glyph-name="A" unicode="A" horiz-adv-x="662" 
d="M659 0h-83l-81 192h-328l-81 -192h-83l281 662h94zM466 261l-135 323l-135 -323h270z" />
    <glyph glyph-name="B" unicode="B" horiz-adv-x="662" 
d="M587 487c0 -72.667 -29.666 -122.332 -88.999 -148.999c54.667 -18 92 -51 112 -99c7.33301 -18.667 11 -40.334 11 -65.001c0 -80 -42.333 -133.333 -127 -160c-28 -9.33301 -61 -14 -99 -14h-314v662h297c71.333 0 125.666 -19.333 162.999 -58
c30.667 -30.667 46 -69.667 46 -117zM156.001 366.002h222c61.333 0 102.333 21 123 63c7.33301 14.667 11 30.5 11 47.5s-2.33301 32 -7 45s-12 24.5 -22 34.5c-22 23.333 -54.333 35 -97 35h-230v-225zM403.001 71.002c46 0 81.333 9.50098 106 28.501s37 45.833 37 80.5
c0 33.333 -12 60.666 -36 81.999c-26.667 24 -65 36 -115 36h-239v-227h247z" />
    <glyph glyph-name="C" unicode="C" horiz-adv-x="690" 
d="M376 65c47.333 0 88.8311 12 124.498 36s62.167 56.333 79.5 97h79c-22 -62.667 -58.333 -112 -109 -148c-54 -38.667 -117.667 -58 -191 -58c-96.667 0 -175 33 -235 99c-56.667 63.333 -85 143.333 -85 240s28.333 176.667 85 240c60 66 138.333 99 235 99
c73.333 0 137 -19.333 191 -58c50.667 -36 87 -85.333 109 -148h-79c-17.333 40.667 -43.833 73 -79.5 97s-77.167 36 -124.5 36s-86.666 -6.83301 -117.999 -20.5s-57.666 -32.5 -78.999 -56.5c-43.333 -48.667 -65 -111.667 -65 -189s21.667 -140.333 65 -189
c45.333 -51.333 111 -77 197 -77z" />
    <glyph glyph-name="D" unicode="D" horiz-adv-x="704" 
d="M360 662c39.333 0 77.333 -7.5 114 -22.5s69 -36.833 97 -65.5c62 -63.333 93 -144.333 93 -243s-31 -179.667 -93 -243c-28 -28.667 -60.333 -50.5 -97 -65.5s-74.667 -22.5 -114 -22.5h-279v662h279zM357 71c69.333 0 125.666 25.667 168.999 77
c42 49.333 63 110.333 63 183s-21 133.667 -63 183c-43.333 51.333 -99.666 77 -168.999 77h-201v-520h201z" />
    <glyph glyph-name="E" unicode="E" horiz-adv-x="608" 
d="M156 590v-222h368v-73h-368v-223h412v-72h-487v662h487v-72h-412z" />
    <glyph glyph-name="F" unicode="F" horiz-adv-x="583" 
d="M156 590v-230h359v-73h-359v-287h-75v662h478v-72h-403z" />
    <glyph glyph-name="G" unicode="G" horiz-adv-x="723" 
d="M230 643.5c40 17.667 81.333 26.4961 124 26.4961s79.667 -4.66699 111 -14s59.666 -22 84.999 -38c52.667 -34 91.334 -79.333 116.001 -136h-82c-20 36 -47.833 64.167 -83.5 84.5s-76.167 30.5 -121.5 30.5s-84 -6.83301 -116 -20.5s-59 -32.5 -81 -56.5
c-45.333 -49.333 -68 -112.333 -68 -189c0 -77.333 22.333 -140.333 67 -189c47.333 -51.333 110 -77 188 -77c62.667 0 116.667 19.333 162 58c48 40.667 72 94.334 72 161.001h-242v68h311v-352h-69v117c-38 -57.333 -90.667 -95.666 -158 -114.999
c-24.667 -6.66699 -57.167 -10 -97.5 -10s-80.5 8.83301 -120.5 26.5s-74 41.834 -102 72.501c-57.333 62.667 -86 142.667 -86 240c0 96 29.667 176 89 240c28 30.667 62 54.834 102 72.501z" />
    <glyph glyph-name="H" unicode="H" horiz-adv-x="697" 
d="M616 662v-662h-75v295h-385v-295h-75v662h75v-294h385v294h75z" />
    <glyph glyph-name="I" unicode="I" horiz-adv-x="237" 
d="M156 0h-75v662h75v-662z" />
    <glyph glyph-name="J" unicode="J" horiz-adv-x="527" 
d="M452 662l-0.000976562 -443c0 -64 -16 -116.333 -48 -157c-37.333 -46.667 -93.333 -70 -168 -70c-67.333 0 -121 19.333 -161 58c-35.333 35.333 -55.333 77.666 -60 126.999h78c4.66699 -29.333 18.334 -54.333 41.001 -75c26.667 -24.667 62 -37 106 -37
c53.333 0 91.333 17.667 114 53c15.333 24.667 23 59.334 23 104.001v440h75z" />
    <glyph glyph-name="K" unicode="K" horiz-adv-x="641" 
d="M348 396l298 -396h-94l-259 345l-137 -128v-217h-75v662h75v-345l368 345h106z" />
    <glyph glyph-name="L" unicode="L" horiz-adv-x="533" 
d="M156 662v-590h361v-72h-436v662h75z" />
    <glyph glyph-name="M" unicode="M" horiz-adv-x="806" 
d="M725 662v-662h-75v548l-245 -315l-249 315v-548h-75v662h87l237 -314l233 314h87z" />
    <glyph glyph-name="N" unicode="N" horiz-adv-x="733" 
d="M652 662v-662h-87l-409 559v-559h-75v662h87l409 -557v557h75z" />
    <glyph glyph-name="O" unicode="O" horiz-adv-x="750" 
d="M375 670c98.667 0 179.667 -33 243 -99c62 -64 93 -144 93 -240s-31 -176 -93 -240c-63.333 -66 -144.333 -99 -243 -99s-179.667 33 -243 99c-62 64 -93 144 -93 240s31 176 93 240c63.333 66 144.333 99 243 99zM375 65c78.667 0 142.334 25.667 191.001 77
c46.667 49.333 70 112.333 70 189s-23.333 139.667 -70 189c-48.667 51.333 -112.334 77 -191.001 77s-142.334 -25.667 -191.001 -77c-46.667 -49.333 -70 -112.333 -70 -189s23.333 -139.667 70 -189c48.667 -51.333 112.334 -77 191.001 -77z" />
    <glyph glyph-name="P" unicode="P" horiz-adv-x="628" 
d="M156 0h-75v662h298c70 0 125.667 -19.333 167 -58c40.667 -38.667 61 -90.334 61 -155.001c0 -65.333 -20.5 -117.166 -61.5 -155.499s-96.5 -57.5 -166.5 -57.5h-223v-236zM156 591v-284.998h218c52 0 91.333 12.667 118 38s40 60.166 40 104.499
s-13.333 79.166 -40 104.499s-66 38 -118 38h-218z" />
    <glyph glyph-name="Q" unicode="Q" horiz-adv-x="750" 
d="M597 -93c43.333 0 83.668 15.001 121.001 45.001l40 -54c-46 -36.667 -100 -55 -162 -55c-49.333 0 -95.333 13.667 -138 41s-75 63.666 -97 108.999c-95.333 4 -173 38.333 -233 103c-59.333 62.667 -89 141 -89 235c0 96 31 176 93 240c63.333 66 144.333 99 243 99
s179.667 -33 243 -99c62 -64 93 -144 93 -240c0 -84 -25.333 -157 -76 -219c-50.667 -62.667 -116.667 -100.667 -198 -114c19.333 -38.667 52.333 -66 99 -82c17.333 -6 37.666 -9 60.999 -9zM375.002 65.001c78.667 0 142.334 25.667 191.001 77
c46.667 49.333 70 112.333 70 189s-23.333 139.667 -70 189c-48.667 51.333 -112.334 77 -191.001 77s-142.334 -25.667 -191.001 -77c-46.667 -49.333 -70 -112.333 -70 -189s23.333 -139.667 70 -189c48.667 -51.333 112.334 -77 191.001 -77z" />
    <glyph glyph-name="R" unicode="R" horiz-adv-x="669" 
d="M156 0h-75v662h317c67.333 0 121.333 -18.667 162 -56c40.667 -36.667 61 -87 61 -151c0 -82.667 -34.333 -139 -103 -169c-19.333 -8.66699 -38.333 -15 -57 -19l174 -267h-89l-160 254h-230v-254zM156 325h228.999c70.667 0 119.334 22 146.001 66
c10 16.667 15 38 15 64c0 42 -14.333 75.167 -43 99.5s-66.667 36.5 -114 36.5h-233v-266z" />
    <glyph glyph-name="S" unicode="S" horiz-adv-x="615" 
d="M131.5 524c-4.33301 -13.333 -6.49414 -27.499 -6.49414 -42.499s6.5 -28.833 19.5 -41.5s30.167 -23.334 51.5 -32.001s45.666 -16.334 72.999 -23.001l83.5 -20.5c28.333 -7 56.166 -15 83.499 -24s51.666 -20.5 72.999 -34.5c47.333 -30 71 -71 71 -123
c0 -62 -23.167 -109.333 -69.5 -142s-110.5 -49 -192.5 -49c-92.667 0 -163.334 19.333 -212.001 58c-43.333 34.667 -68 84 -74 148h78c2.66699 -45.333 24.667 -80 66 -104c36 -20.667 83.667 -31 143 -31c124 0 186 39 186 117c0 26.667 -11.167 47.667 -33.5 63
s-50.333 28 -84 38s-70 19.333 -109 28s-75.333 19.834 -109 33.501s-61.667 31.667 -84 54s-33.5 52.5 -33.5 90.5c0 54 20.667 98 62 132s103.666 51 186.999 51c84 0 149 -19.333 195 -58c42 -34 64.333 -77.667 67 -131h-77c-6.66699 54.667 -42 91 -106 109
c-22.667 6.66699 -50.834 10 -84.501 10s-62 -3.83301 -85 -11.5s-40.833 -17 -53.5 -28s-21.167 -23.167 -25.5 -36.5z" />
    <glyph glyph-name="T" unicode="T" horiz-adv-x="565" 
d="M551 590h-231v-590h-75v590h-231v72h537v-72z" />
    <glyph glyph-name="U" unicode="U" horiz-adv-x="709" 
d="M636 662l-0.000976562 -377c0 -88 -26.167 -158.833 -78.5 -212.5s-120.166 -80.5 -203.499 -80.5c-82.667 0 -150.167 26.833 -202.5 80.5s-78.5 124.5 -78.5 212.5v377h75v-379c0 -71.333 21.333 -127 64 -167c36.667 -34 84 -51 142 -51s105.667 17 143 51
c42.667 39.333 64 95 64 167v379h75z" />
    <glyph glyph-name="V" unicode="V" horiz-adv-x="628" 
d="M625 662l-268 -662h-86l-268 662h82l229 -577l229 577h82z" />
    <glyph glyph-name="W" unicode="W" horiz-adv-x="958" 
d="M300 0h-85l-206 662h79l170 -556l178 556h86l178 -556l170 556h79l-206 -662h-85l-179 556z" />
    <glyph glyph-name="X" unicode="X" horiz-adv-x="613" 
d="M352 342l264 -342h-95l-215 284l-214 -284h-95l264 342l-246 320h95l196 -260l197 260h95z" />
    <glyph glyph-name="Y" unicode="Y" horiz-adv-x="629" 
d="M352 0h-75v262l-278 400h91l224 -322l224 322h91l-277 -400v-262z" />
    <glyph glyph-name="Z" unicode="Z" horiz-adv-x="584" 
d="M121 70h432v-70h-524v71l432 521h-426v70h518v-72z" />
    <glyph glyph-name="bracketleft" unicode="[" horiz-adv-x="280" 
d="M132 617v-688h121v-62h-187v812h187v-62h-121z" />
    <glyph glyph-name="backslash" unicode="\" horiz-adv-x="371" 
d="M106 680l229 -712h-70l-229 712h70z" />
    <glyph glyph-name="bracketright" unicode="]" horiz-adv-x="280" 
d="M27 617v62h187v-812h-187v62h121v688h-121z" />
    <glyph glyph-name="asciicircum" unicode="^" horiz-adv-x="500" 
d="M434 355h-70l-109 215l-110 -215h-70l149 313h61z" />
    <glyph glyph-name="underscore" unicode="_" horiz-adv-x="600" 
d="M50 -73h500v-55h-500v55z" />
    <glyph glyph-name="grave" unicode="`" horiz-adv-x="340" 
d="M261 570h-61l-107 105h107z" />
    <glyph glyph-name="a" unicode="a" horiz-adv-x="595" 
d="M455 80c-40 -58.667 -99.666 -88 -178.999 -88c-72 0 -130.667 25 -176 75c-44 49.333 -66 110.333 -66 183s22 133.667 66 183c45.333 50 105.666 75 180.999 75s133.333 -29.667 174 -89v81h75v-500h-75v80zM286.001 60c54 0 96.667 18.667 128 56
c30 35.333 45 80 45 134s-15 98.667 -45 134c-31.333 37.333 -74 56 -128 56c-53.333 0 -96.666 -18.667 -129.999 -56c-31.333 -35.333 -47 -80 -47 -134s15.667 -98.667 47 -134c33.333 -37.333 76.666 -56 129.999 -56z" />
    <glyph glyph-name="b" unicode="b" horiz-adv-x="594" 
d="M140 419c40.667 59.333 100.334 89 179.001 89c72 0 130.333 -25 175 -75c44.667 -49.333 67 -110.333 67 -183s-22.333 -133.667 -67 -183c-44.667 -50 -104.834 -75 -180.501 -75s-133.5 29.333 -173.5 88v-80h-75v700h75v-281zM309 60
c53.333 0 96.666 18.667 129.999 56c31.333 35.333 47 80 47 134s-15.667 98.667 -47 134c-33.333 37.333 -76.666 56 -129.999 56c-54 0 -96.667 -18.667 -128 -56c-30 -35.333 -45 -80 -45 -134s15 -98.667 45 -134c31.333 -37.333 74 -56 128 -56z" />
    <glyph glyph-name="c" unicode="c" horiz-adv-x="544" 
d="M296 60c32 0 60.332 9 84.999 27s42.667 41.333 54 70h81c-15.333 -49.333 -43.333 -89 -84 -119c-42.667 -30.667 -93.334 -46 -152.001 -46c-73.333 0 -133 25 -179 75c-44.667 48.667 -67 109.667 -67 183s22.333 134.333 67 183c46 50 105.667 75 179 75
c58.667 0 109.334 -15.333 152.001 -46c40.667 -30 68.667 -69.667 84 -119h-81c-11.333 28.667 -29.333 52 -54 70s-53 27 -85 27s-59.167 -5 -81.5 -15s-41.166 -23.667 -56.499 -41c-32.667 -36 -49 -80.667 -49 -134s16.333 -98 49 -134
c33.333 -37.333 79.333 -56 138 -56z" />
    <glyph glyph-name="d" unicode="d" horiz-adv-x="595" 
d="M455 80c-40 -58.667 -99.666 -88 -178.999 -88c-72 0 -130.667 25 -176 75c-44 49.333 -66 110.333 -66 183s22 133.667 66 183c45.333 50 105.666 75 180.999 75s133.333 -29.667 174 -89v281h75v-700h-75v80zM286.001 60c54 0 96.667 18.667 128 56
c30 35.333 45 80 45 134s-15 98.667 -45 134c-31.333 37.333 -74 56 -128 56c-53.333 0 -96.666 -18.667 -129.999 -56c-31.333 -35.333 -47 -80 -47 -134s15.667 -98.667 47 -134c33.333 -37.333 76.666 -56 129.999 -56z" />
    <glyph glyph-name="e" unicode="e" horiz-adv-x="557" 
d="M288 60c67.333 0 115.665 28 144.998 84h82c-17.333 -45.333 -44.833 -82 -82.5 -110s-86.167 -42 -145.5 -42c-75.333 0 -136.666 25 -183.999 75c-46 48.667 -69 109.667 -69 183c0 74 22 135 66 183c46.667 50 107.334 75 182.001 75s135.334 -25 182.001 -75
c44 -48 66 -109 66 -183v-30h-419c5.33301 -46 23.666 -84 54.999 -114c32 -30.667 72.667 -46 122 -46zM281.999 440c-46 0 -84.667 -14.333 -116 -43c-29.333 -27.333 -47.333 -63 -54 -107h340c-6.66699 44 -24.667 79.667 -54 107c-31.333 28.667 -70 43 -116 43z" />
    <glyph glyph-name="f" unicode="f" horiz-adv-x="307" 
d="M280 637c-35.333 0 -61.833 -7.83203 -79.5 -23.499s-26.5 -40.834 -26.5 -75.501v-38h116v-66h-116v-434h-75v434h-86v66h86v44c0 54.667 16.333 95.667 49 123s78 41 136 41h6v-71h-10z" />
    <glyph glyph-name="g" unicode="g" horiz-adv-x="595" 
d="M455 420l0.000976562 80h75v-485c0 -72 -20.5 -126.833 -61.5 -164.5s-96.167 -56.5 -165.5 -56.5s-123.5 13.333 -162.5 40s-65.5 62 -79.5 106h83c21.333 -52 70 -78 146 -78c58 0 100 13.333 126 40s39 66 39 118v69c-40.667 -59.333 -100.334 -89 -179.001 -89
c-72 0 -130.667 24.667 -176 74c-44 48 -66 108 -66 180s22 132 66 180c45.333 49.333 105.833 74 181.5 74s133.5 -29.333 173.5 -88zM286.001 68c27.333 0 51.6689 4.83203 73.002 14.499s39.666 22.834 54.999 39.501c30 34.667 45 78.667 45 132s-15 97.333 -45 132
c-32.667 36 -75.334 54 -128.001 54c-54 0 -97.333 -18 -130 -54c-31.333 -35.333 -47 -79.333 -47 -132s15.667 -96.667 47 -132c32.667 -36 76 -54 130 -54z" />
    <glyph glyph-name="h" unicode="h" horiz-adv-x="566" 
d="M140 700v-277.998c18 24 40 44.333 66 61s55.667 25 89 25s62 -4.66699 86 -14s45 -23.333 63 -42c41.333 -40.667 62 -94.334 62 -161.001v-291h-75v289c0 46 -13 82.667 -39 110s-59.667 41 -101 41c-42 0 -77.667 -14 -107 -42
c-29.333 -28.667 -44 -65.334 -44 -110.001v-288h-75v700h75z" />
    <glyph glyph-name="i" unicode="i" horiz-adv-x="205" 
d="M65 500h75v-500h-75v500zM143 682v-98h-81v98h81z" />
    <glyph glyph-name="j" unicode="j" horiz-adv-x="205" 
d="M65 500h75v-698h-75v698zM143 682v-98h-81v98h81z" />
    <glyph glyph-name="k" unicode="k" horiz-adv-x="502" 
d="M285 303l216 -303h-92l-175 251l-94 -93v-158h-75v700h75v-448l241 248h105z" />
    <glyph glyph-name="l" unicode="l" horiz-adv-x="205" 
d="M140 0h-75v700h75v-700z" />
    <glyph glyph-name="m" unicode="m" horiz-adv-x="868" 
d="M140 424c33.333 56 84.0039 84 152.004 84c33.333 0 64.166 -8.83301 92.499 -26.5s50.5 -42.5 66.5 -74.5c22.667 42 58 72 106 90c19.333 7.33301 41.166 11 65.499 11s47.666 -4.83301 69.999 -14.5s42.166 -23.5 59.499 -41.5c37.333 -40 56 -90 56 -150v-302h-75
v300c0 41.333 -11.667 75.333 -35 102c-23.333 25.333 -53 38 -89 38c-38 0 -69.667 -12.333 -95 -37c-26.667 -25.333 -40 -60 -40 -104v-299h-75v300c0 41.333 -11.667 75.333 -35 102c-23.333 25.333 -53 38 -89 38c-38 0 -69.667 -12.333 -95 -37
c-26.667 -25.333 -40 -60 -40 -104v-299h-75v500h75v-76z" />
    <glyph glyph-name="n" unicode="n" horiz-adv-x="566" 
d="M140 500v-77.998c18 24 40 44.333 66 61s55.667 25 89 25s62 -4.66699 86 -14s45 -23.333 63 -42c41.333 -40.667 62 -94.334 62 -161.001v-291h-75v289c0 46 -13 82.667 -39 110s-59.667 41 -101 41c-42 0 -77.667 -14 -107 -42
c-29.333 -28.667 -44 -65.334 -44 -110.001v-288h-75v500h75z" />
    <glyph glyph-name="o" unicode="o" horiz-adv-x="564" 
d="M282 508c74.667 0 135.334 -25 182.001 -75c44 -48 66 -109 66 -183s-22 -135 -66 -183c-46.667 -50 -107.334 -75 -182.001 -75s-135.334 25 -182.001 75c-44 48 -66 109 -66 183s22 135 66 183c46.667 50 107.334 75 182.001 75zM282 60c54 0 96.667 18.667 128 56
c30 35.333 45 80 45 134s-15 98.667 -45 134c-31.333 37.333 -74 56 -128 56s-96.667 -18.667 -128 -56c-30 -35.333 -45 -80 -45 -134s15 -98.667 45 -134c31.333 -37.333 74 -56 128 -56z" />
    <glyph glyph-name="p" unicode="p" horiz-adv-x="594" 
d="M140 420c40 58.667 99.667 88 179 88c72 0 130.333 -25 175 -75c44.667 -49.333 67 -110.333 67 -183s-22.333 -133.667 -67 -183c-44.667 -50 -104.667 -75 -180 -75s-133.333 29.667 -174 89v-279h-75v698h75v-80zM309 440c-54 0 -96.667 -18.667 -128 -56
c-30 -35.333 -45 -80 -45 -134s15 -98.667 45 -134c31.333 -37.333 74 -56 128 -56c53.333 0 96.666 18.667 129.999 56c31.333 35.333 47 80 47 134s-15.667 98.667 -47 134c-33.333 37.333 -76.666 56 -129.999 56z" />
    <glyph glyph-name="q" unicode="q" horiz-adv-x="595" 
d="M455 81c-40.667 -59.333 -100.333 -89 -179 -89c-72 0 -130.667 25 -176 75c-44 49.333 -66 110.333 -66 183s22 133.667 66 183c45.333 50 105.833 75 181.5 75s133.5 -29.333 173.5 -88v80h75v-698h-75v279zM286.001 440c-53.333 0 -96.666 -18.667 -129.999 -56
c-31.333 -35.333 -47 -80 -47 -134s15.667 -98.667 47 -134c33.333 -37.333 76.666 -56 129.999 -56c54 0 96.667 18.667 128 56c30 35.333 45 80 45 134s-15 98.667 -45 134c-31.333 37.333 -74 56 -128 56z" />
    <glyph glyph-name="r" unicode="r" horiz-adv-x="345" 
d="M329 508v-75.001h-9c-54 0 -98 -21.667 -132 -65c-32 -41.333 -48 -90.666 -48 -147.999v-220h-75v500h75v-123c16 52 50.667 90.333 104 115c22 10.667 48.667 16 80 16h5z" />
    <glyph glyph-name="s" unicode="s" horiz-adv-x="482" 
d="M359 366c-6.66699 52 -48.498 78.0029 -125.498 78.0029s-115.5 -24 -115.5 -72c0 -20 8.16699 -35.167 24.5 -45.5s36.833 -18.833 61.5 -25.5s51.5 -12.834 80.5 -18.501s55.833 -13.667 80.5 -24s45.167 -24.5 61.5 -42.5s24.5 -42.667 24.5 -74
c0 -48.667 -18.333 -85.834 -55 -111.501s-86.334 -38.5 -149.001 -38.5c-66.667 0 -119.667 16.667 -159 50c-36 29.333 -55.333 67.666 -58 114.999h78c4.66699 -46 30.667 -77 78 -93c17.333 -5.33301 34.5 -8 51.5 -8s32.833 1 47.5 3s29 5.66699 43 11
c32 12.667 48 34.334 48 65.001c0 20.667 -8.16699 36.5 -24.5 47.5s-36.833 20 -61.5 27s-51.5 13.333 -80.5 19s-55.833 13.5 -80.5 23.5s-45.167 23.667 -61.5 41s-24.5 41.333 -24.5 72c0 45.333 16.5 80.5 49.5 105.5s81.833 37.5 146.5 37.5
c61.333 0 109.666 -14.667 144.999 -44c29.333 -24.667 46.333 -57.334 51 -98.001h-76z" />
    <glyph glyph-name="t" unicode="t" horiz-adv-x="326" 
d="M119 0v434h-102v66h102v179h75v-179h115v-66h-115v-434h-75z" />
    <glyph glyph-name="u" unicode="u" horiz-adv-x="566" 
d="M426 0v77.998c-18 -24 -40 -44.333 -66 -61s-55.667 -25 -89 -25s-62 4.66699 -86 14s-45 23.333 -63 42c-41.333 40.667 -62 94.334 -62 161.001v291h75v-289c0 -46 13 -82.667 39 -110s59.667 -41 101 -41c42 0 77.667 14 107 42c29.333 28.667 44 65.334 44 110.001
v288h75v-500h-75z" />
    <glyph glyph-name="v" unicode="v" horiz-adv-x="489" 
d="M484 500l-195 -500h-88l-196 500h82l158 -420l157 420h82z" />
    <glyph glyph-name="w" unicode="w" horiz-adv-x="754" 
d="M377 399l-125 -399h-86l-157 500h80l120 -407l127 407h82l127 -407l120 407h80l-157 -500h-86z" />
    <glyph glyph-name="x" unicode="x" horiz-adv-x="482" 
d="M284 258l194 -258h-96l-141 204l-142 -204h-95l193 258l-181 242h96l129 -189l128 189h96z" />
    <glyph glyph-name="y" unicode="y" horiz-adv-x="497" 
d="M198 -198h-81l91 205l-204 493h83l161 -410l164 410h82z" />
    <glyph glyph-name="z" unicode="z" horiz-adv-x="458" 
d="M125 70h300v-70h-394v71l299 360h-295v69h390v-70z" />
    <glyph glyph-name="braceleft" unicode="{" horiz-adv-x="294" 
d="M96 273c46.667 -23.333 69.999 -66.332 69.999 -128.999v-132c0 -34.667 7.16699 -58.5 21.5 -71.5s41.5 -19.5 81.5 -19.5v-54c-24 0 -46.167 1.16699 -66.5 3.5s-38.166 8.16602 -53.499 17.499c-32.667 20.667 -49 61.667 -49 123v144c0 30.667 -9.33301 55 -28 73
c-15.333 14.667 -32.333 22 -51 22v46c18.667 0 33.667 5.66699 45 17c22.667 21.333 34 47.333 34 78v144c0 86 34 133 102 141c20.667 2 43 3 67 3v-54c-40 0 -67.167 -6.5 -81.5 -19.5s-21.5 -36.833 -21.5 -71.5v-132c0 -37.333 -7 -66 -21 -86s-30.333 -34.333 -49 -43
z" />
    <glyph glyph-name="bar" unicode="|" horiz-adv-x="191" 
d="M65 -179v927h61v-927h-61z" />
    <glyph glyph-name="braceright" unicode="}" horiz-adv-x="294" 
d="M128 144c0 62.667 23.334 105.666 70.001 128.999c-18.667 8.66699 -35 23 -49 43s-21 48.667 -21 86v132c0 34.667 -7.16699 58.5 -21.5 71.5s-41.5 19.5 -81.5 19.5v54c24 0 46.167 -1.16699 66.5 -3.5s38.166 -8.16602 53.499 -17.499
c32.667 -20.667 49 -61.667 49 -123v-144c0 -30.667 9.33301 -55 28 -73c15.333 -14.667 32.333 -22 51 -22v-46c-18.667 0 -33.667 -5.66699 -45 -17c-22.667 -21.333 -34 -47.333 -34 -78v-144c0 -86 -34 -133 -102 -141c-20.667 -2 -43 -3 -67 -3v54
c40 0 67.167 6.5 81.5 19.5s21.5 36.833 21.5 71.5v132z" />
    <glyph glyph-name="asciitilde" unicode="~" horiz-adv-x="524" 
d="M48 215c10 89.333 47.3311 134 111.998 134c24.667 0 54.667 -7 90 -21l78.5 -30.5c17 -6.33301 32 -9.5 45 -9.5s24.167 3 33.5 9s16.666 13 21.999 21s9.16602 16 11.499 24s4.16602 14 5.49902 18h32c-6.66699 -38 -14.667 -65.167 -24 -81.5
s-20.666 -29.166 -33.999 -38.499s-29.833 -14 -49.5 -14s-39.5 3.16699 -59.5 9.5s-39.667 13.166 -59 20.499l-54.5 20.5c-17 6.33301 -32.167 9.5 -45.5 9.5s-24.666 -2.83301 -33.999 -8.5s-16.666 -12.5 -21.999 -20.5s-9.16602 -16 -11.499 -24
s-4.16602 -14 -5.49902 -18h-31z" />
    <glyph glyph-name="exclamdown" unicode="&#xa1;" horiz-adv-x="207" 
d="M153 398.006v101.994h-97v-101.994h97zM77 317.011l-19 -478.971h93l-19 478.971h-55z" />
    <glyph glyph-name="cent" unicode="&#xa2;" horiz-adv-x="574" 
d="M316 60c32.667 2.66699 60.167 12.6709 82.5 30.0039s39.166 39.666 50.499 66.999h81c-13.333 -46 -38.833 -83.833 -76.5 -113.5s-83.5 -46.5 -137.5 -50.5v-94h-36v93c-70.667 4 -127 30.667 -169 80s-63 108.666 -63 177.999s21 128.666 63 177.999s98.333 76 169 80
v87h36v-88c54 -4 99.833 -20.833 137.5 -50.5s63.167 -67.5 76.5 -113.5h-81c-11.333 27.333 -28.166 49.666 -50.499 66.999s-49.833 27.333 -82.5 30v-380zM123 250.004c0 -48 14.001 -90 42.001 -126c29.333 -36.667 67.666 -57.667 114.999 -63v378
c-48.667 -6.66699 -87 -27.667 -115 -63c-28 -36 -42 -78 -42 -126z" />
    <glyph glyph-name="sterling" unicode="&#xa3;" horiz-adv-x="575" 
d="M328 670c34.667 0 63.5 -4.16602 86.5 -12.499s42.5 -19.5 58.5 -33.5c30 -26 49.333 -61.333 58 -106h-71c-11.333 36.667 -36.333 61.334 -75 74.001c-14 4.66699 -33.167 7 -57.5 7s-45.5 -4.83301 -63.5 -14.5s-31.667 -21.834 -41 -36.501
c-14.667 -23.333 -22 -57.333 -22 -102v-69h148v-58h-148v-249h303v-70h-456v61l80 9v249h-71v58h71v72c0 63.333 15.333 114.666 46 153.999c34.667 44.667 86 67 154 67z" />
    <glyph glyph-name="currency" unicode="&#xa4;" horiz-adv-x="567" 
d="M455 450c27.333 -35.333 41.001 -77.166 41.001 -125.499s-13.667 -90.833 -41 -127.5l64 -64l-44 -45l-65 65c-36 -28 -77.833 -42 -125.5 -42s-90.167 14 -127.5 42l-64 -65l-45 45l64 64c-27.333 36.667 -41 79.167 -41 127.5s13.667 90.166 41 125.499l-64 65l45 45
l64 -65c36.667 27.333 79.167 41 127.5 41s90.166 -13.667 125.499 -41l65 65l44 -45zM284.001 172c20.667 0 40.333 4 59 12s35 18.667 49 32c29.333 30 44 66 44 108s-14.833 77.833 -44.5 107.5s-65.5 44.5 -107.5 44.5s-77.833 -14.833 -107.5 -44.5
s-44.5 -65.5 -44.5 -107.5s14.833 -77.833 44.5 -107.5s65.5 -44.5 107.5 -44.5z" />
    <glyph glyph-name="yen" unicode="&#xa5;" horiz-adv-x="657" 
d="M98 190h193v72l-17 27h-176v65h134l-195 308h91l200 -322l201 322h91l-196 -308h135v-65h-176l-17 -27v-72h193v-65h-193v-125h-75v125h-193v65z" />
    <glyph glyph-name="section" unicode="&#xa7;" horiz-adv-x="519" 
d="M396 74c26 -28.667 39.001 -60.1641 39.001 -94.4971s-6.33301 -61.333 -19 -81s-28 -35.167 -46 -46.5c-32.667 -20 -72.667 -30 -120 -30c-54 0 -99.667 15.667 -137 47c-36 30 -56 67.333 -60 112h69c4 -24.667 17.667 -45.667 41 -63
c25.333 -19.333 54.333 -29 87 -29s59.5 6.66699 80.5 20s31.5 31.666 31.5 54.999s-7.83301 43.5 -23.5 60.5s-35.167 33.333 -58.5 49s-48.5 31.167 -75.5 46.5s-52.167 31.833 -75.5 49.5s-42.833 36.834 -58.5 57.501s-23.5 44.334 -23.5 71.001
c0 58 25.667 97.333 77 118c-25.333 31.333 -38 63.666 -38 96.999s6 59.833 18 79.5s27.333 35.167 46 46.5c32 20 71 30 117 30c53.333 0 98.333 -15.667 135 -47c34.667 -30 54 -67.333 58 -112h-69c-4 24.667 -17 45.667 -39 63c-24 19.333 -52.333 29 -85 29
s-58.834 -6.66699 -78.501 -20s-29.5 -31.5 -29.5 -54.5s7.83301 -43.167 23.5 -60.5s35.167 -33.833 58.5 -49.5s48.5 -31.167 75.5 -46.5s52.167 -31.833 75.5 -49.5s42.833 -36.834 58.5 -57.501s23.5 -44.334 23.5 -71.001c0 -58.667 -26 -98.334 -78 -119.001z
M360.001 109.003c27.333 12.667 41 32.668 41 60.001s-8.16699 49.666 -24.5 66.999s-36.5 33.833 -60.5 49.5s-50 31 -78 46s-53.667 31.833 -77 50.5c-27.333 -13.333 -41 -33.5 -41 -60.5s8.16699 -49.333 24.5 -67s36.5 -34.167 60.5 -49.5s50 -30.5 78 -45.5
s53.667 -31.833 77 -50.5z" />
    <glyph glyph-name="dieresis" unicode="&#xa8;" horiz-adv-x="423" 
d="M163 662v-83h-89v83h89zM320 662v-83h-89v83h89z" />
    <glyph glyph-name="copyright" unicode="&#xa9;" horiz-adv-x="779" 
d="M466.5 440c-19 14 -45.499 20.998 -79.499 20.998s-62 -12.167 -84 -36.5s-33 -56.166 -33 -95.499s11 -71.166 33 -95.499s50 -36.5 84 -36.5s60.5 7 79.5 21s30.833 33.333 35.5 58h67c-8 -46.667 -28.333 -82.667 -61 -108c-30.667 -23.333 -70.334 -35 -119.001 -35
c-58 0 -103.667 18.333 -137 55c-33.333 37.333 -50 84.333 -50 141c0 57.333 16.667 104 50 140c34 36.667 79.667 55 137 55c73.333 0 126 -26.667 158 -80c10.667 -17.333 18 -38 22 -62h-67c-4.66699 24.667 -16.5 44 -35.5 58zM389.001 671.998
c47.333 0 91.833 -9 133.5 -27s78 -42.5 109 -73.5s55.5 -67.333 73.5 -109s27 -86.167 27 -133.5s-9 -91.666 -27 -132.999s-42.5 -77.5 -73.5 -108.5s-67.333 -55.5 -109 -73.5s-86.167 -27 -133.5 -27s-91.666 9 -132.999 27s-77.5 42.5 -108.5 73.5
s-55.5 67.167 -73.5 108.5s-27 85.666 -27 132.999s9 91.833 27 133.5s42.5 78 73.5 109s67.167 55.5 108.5 73.5s85.666 27 132.999 27zM389.001 35.998c81.333 0 150.666 28.666 207.999 85.999c26.667 26.667 47.667 57.834 63 93.501s23 73.667 23 114
s-7.66699 78.333 -23 114s-36.333 66.834 -63 93.501c-57.333 57.333 -126.666 86 -207.999 86c-82 0 -151 -28.667 -207 -86c-57.333 -58 -86 -127.333 -86 -208c0 -40 7.66699 -77.833 23 -113.5s36.333 -66.834 63 -93.501c56 -57.333 125 -86 207 -86z" />
    <glyph glyph-name="ordfeminine" unicode="&#xaa;" horiz-adv-x="371" 
d="M262 619v43h52v-266h-52v43c-21.333 -31.333 -53 -47 -95 -47c-39.333 0 -71 13.333 -95 40c-23.333 26 -35 58.333 -35 97s11.667 71 35 97c24 26.667 56 40 96 40s71.333 -15.667 94 -47zM111 465c14.667 -16.667 36 -24.999 64 -24.999s49.667 8.5 65 25.5
s23 38.167 23 63.5s-7.66699 46.5 -23 63.5s-37 25.5 -65 25.5s-49.333 -8.5 -64 -25.5s-22 -38.333 -22 -64s7.33301 -46.834 22 -63.501z" />
    <glyph glyph-name="guillemotleft" unicode="&#xab;" horiz-adv-x="487" 
d="M305 259l137 -202h-89l-130 202l130 202h89zM121 259l137 -202h-89l-130 202l130 202h89z" />
    <glyph glyph-name="logicalnot" unicode="&#xac;" horiz-adv-x="593" 
d="M62 389h467v-203h-72v135h-395v68z" />
    <glyph glyph-name="registered" unicode="&#xae;" horiz-adv-x="779" 
d="M558 407c0 -22.667 -6.66699 -42.834 -20 -60.501s-31.666 -30.167 -54.999 -37.5c36.667 -10.667 59 -40.667 67 -90c2 -12.667 3 -24 3 -34v-47h-69v38c0 28.667 -3 49.334 -9 62.001c-12.667 26.667 -35.334 40 -68.001 40h-97v-140h-70v382h162
c54 0 93.5 -10.333 118.5 -31s37.5 -48 37.5 -82zM397 338c28 0 50.333 5.33301 67 16s25 25.667 25 45s-6.66699 34.5 -20 45.5s-38 16.5 -74 16.5h-85v-123h87zM389 672c47.333 0 91.833 -9 133.5 -27s78 -42.5 109 -73.5s55.5 -67.333 73.5 -109s27 -86.167 27 -133.5
s-9 -91.666 -27 -132.999s-42.5 -77.5 -73.5 -108.5s-67.333 -55.5 -109 -73.5s-86.167 -27 -133.5 -27s-91.666 9 -132.999 27s-77.5 42.5 -108.5 73.5s-55.5 67.167 -73.5 108.5s-27 85.666 -27 132.999s9 91.833 27 133.5s42.5 78 73.5 109s67.167 55.5 108.5 73.5
s85.666 27 132.999 27zM389 36c81.333 0 150.666 28.666 207.999 85.999c26.667 26.667 47.667 57.834 63 93.501s23 73.667 23 114s-7.66699 78.333 -23 114s-36.333 66.834 -63 93.501c-57.333 57.333 -126.666 86 -207.999 86c-82 0 -151 -28.667 -207 -86
c-57.333 -58 -86 -127.333 -86 -208c0 -40 7.66699 -77.833 23 -113.5s36.333 -66.834 63 -93.501c56 -57.333 125 -86 207 -86z" />
    <glyph glyph-name="macron" unicode="&#xaf;" horiz-adv-x="382" 
d="M321 582h-264v60h264v-60z" />
    <glyph glyph-name="degree" unicode="&#xb0;" horiz-adv-x="333" 
d="M166 667c36 0 66.832 -12.832 92.499 -38.499s38.5 -56.5 38.5 -92.5c0 -34.667 -13 -65.334 -39 -92.001c-24 -25.333 -54.667 -38 -92 -38c-36 0 -66.667 12.667 -92 38s-38 56 -38 92c0 37.333 12.667 68 38 92c26.667 26 57.334 39 92.001 39zM114.499 484.501
c14.333 -14.333 31.666 -21.5 51.999 -21.5s37.666 7.16699 51.999 21.5s21.5 31.666 21.5 51.999s-7.16699 37.666 -21.5 51.999s-31.666 21.5 -51.999 21.5s-37.666 -7.16699 -51.999 -21.5s-21.5 -31.666 -21.5 -51.999s7.16699 -37.666 21.5 -51.999z" />
    <glyph glyph-name="plusminus" unicode="&#xb1;" 
d="M500 276h-193v-154h-65v154h-192v65h192v154h65v-154h193v-65zM500 0h-450v62h450v-62z" />
    <glyph glyph-name="twosuperior" unicode="&#xb2;" horiz-adv-x="354" 
d="M301 556c0 -46 -26.668 -86.666 -80.001 -121.999l-43 -28c-33.333 -22 -54 -40 -62 -54h185v-52h-249v29c0 40 32.333 80.667 97 122c38.667 24.667 64.5 44.667 77.5 60s19.5 31 19.5 47s-6.33301 29 -19 39s-29 15 -49 15s-36.833 -6.16699 -50.5 -18.5
s-22.167 -27.5 -25.5 -45.5h-56c4.66699 33.333 18.834 61.166 42.501 83.499s54 33.5 91 33.5s66.5 -10.333 88.5 -31s33 -46.667 33 -78z" />
    <glyph glyph-name="threesuperior" unicode="&#xb3;" horiz-adv-x="335" 
d="M233 492c21.333 -9.33301 36.999 -21.166 46.999 -35.499s15 -31.5 15 -51.5s-3.5 -36.333 -10.5 -49s-16.5 -23.334 -28.5 -32.001c-23.333 -18.667 -52 -28 -86 -28c-34.667 0 -64.667 10.667 -90 32c-25.333 22 -39.333 48.333 -42 79h55
c3.33301 -16 12.166 -30 26.499 -42s31.833 -18 52.5 -18s37.167 6 49.5 18s18.5 25.667 18.5 41s-5.5 29.333 -16.5 42s-27.833 19 -50.5 19h-47v47h43c16 0 30 4.66699 42 14s18 21.166 18 35.499s-5.16699 26.333 -15.5 36s-25.333 14.5 -45 14.5
s-35.167 -5.16699 -46.5 -15.5s-18.333 -22.166 -21 -35.499h-54c2.66699 27.333 14.334 51 35.001 71c22.667 21.333 50.834 32 84.501 32s61.667 -7.83301 84 -23.5s33.5 -37.167 33.5 -64.5c0 -41.333 -17 -70 -51 -86z" />
    <glyph glyph-name="acute" unicode="&#xb4;" horiz-adv-x="349" 
d="M147 675h107l-107 -105h-61z" />
    <glyph glyph-name="mu" unicode="&#xb5;" horiz-adv-x="564" 
d="M276 -8c-52.667 0 -95.666 17.999 -128.999 53.999v-244h-75v698h75v-289c0 -46 13 -82.667 39 -110s59.667 -41 101 -41c42 0 77.667 14 107 42c29.333 28.667 44 65.334 44 110.001v288h75v-500h-75v78c-18 -24 -39.333 -44.333 -64 -61s-57.334 -25 -98.001 -25z" />
    <glyph glyph-name="paragraph" unicode="&#xb6;" horiz-adv-x="565" 
d="M509 616h-43v-757h-59v757h-72v-757h-59v476h-73c-46.667 0 -86.167 16.167 -118.5 48.5s-48.5 71.833 -48.5 118.5c0 46 16 85.667 48 119c32 32.667 71.667 49 119 49h306v-54z" />
    <glyph glyph-name="periodcentered" unicode="&#xb7;" horiz-adv-x="203" 
d="M150 344v-102h-97v102h97z" />
    <glyph glyph-name="cedilla" unicode="&#xb8;" horiz-adv-x="300" 
d="M151 -54c6.66699 1.33301 13.999 1.99902 21.999 1.99902c25.333 0 47 -6.83301 65 -20.5s27 -32.5 27 -56.5c0 -39.333 -23.667 -64.666 -71 -75.999c-13.333 -3.33301 -30.166 -5 -50.499 -5s-40.666 4.16699 -60.999 12.5s-36.833 17.833 -49.5 28.5l19 33
c29.333 -20 57.666 -30 84.999 -30c36.667 0 55 12 55 36c0 10 -5.33301 18 -16 24s-22.5 9 -35.5 9s-25.167 -1.66699 -36.5 -5l-21 17l69 108h43z" />
    <glyph glyph-name="onesuperior" unicode="&#xb9;" horiz-adv-x="212" 
d="M154 662v-361h-55v309h-73v52h128z" />
    <glyph glyph-name="ordmasculine" unicode="&#xba;" horiz-adv-x="342" 
d="M171 666c40 0 72.333 -13.333 97 -40c24.667 -25.333 37 -57.666 37 -96.999s-12.333 -71.666 -37 -96.999c-24.667 -26.667 -57 -40 -97 -40s-72.333 13.333 -97 40c-24.667 25.333 -37 57.666 -37 96.999s12.333 71.666 37 96.999c24.667 26.667 57 40 97 40zM171 440
c27.333 0 47.833 8.83301 61.5 26.5s20.5 38.334 20.5 62.001s-6.83301 44.5 -20.5 62.5s-34.167 27 -61.5 27s-47.833 -9 -61.5 -27s-20.5 -38.833 -20.5 -62.5s6.83301 -44.334 20.5 -62.001s34.167 -26.5 61.5 -26.5z" />
    <glyph glyph-name="guillemotright" unicode="&#xbb;" horiz-adv-x="487" 
d="M45 461h89l130 -202l-130 -202h-89l137 202zM229 461h89l130 -202l-130 -202h-89l137 202z" />
    <glyph glyph-name="onequarter" unicode="&#xbc;" horiz-adv-x="713" 
d="M670 137v-49h-46v-88h-55v88h-165v49l149 224h71v-224h46zM569 301l-109 -164h109v164zM167 662v-361h-55v309h-73v52h128zM98 -14l420 688h64l-420 -688h-64z" />
    <glyph glyph-name="onehalf" unicode="&#xbd;" horiz-adv-x="754" 
d="M167 662v-361h-55v309h-73v52h128zM98 -14l420 688h64l-420 -688h-64zM705 257c0 -46 -26.668 -86.666 -80.001 -121.999l-43 -28c-33.333 -22 -54 -40 -62 -54h185v-52h-249v29c0 40 32.333 80.667 97 122c38.667 24.667 64.5 44.667 77.5 60s19.5 31 19.5 47
s-6.33301 29 -19 39s-29 15 -49 15s-36.833 -6.16699 -50.5 -18.5s-22.167 -27.5 -25.5 -45.5h-56c4.66699 33.333 18.834 61.166 42.501 83.499s54 33.5 91 33.5s66.5 -10.333 88.5 -31s33 -46.667 33 -78z" />
    <glyph glyph-name="threequarters" unicode="&#xbe;" horiz-adv-x="785" 
d="M744 137v-49h-46v-88h-55v88h-165v49l149 224h71v-224h46zM643 301l-109 -164h109v164zM172 -14l420 688h64l-420 -688h-64zM238 492c21.333 -9.33301 37 -21.166 47 -35.499s15 -31.5 15 -51.5s-3.5 -36.333 -10.5 -49s-16.167 -23.334 -27.5 -32.001
c-24 -18.667 -53 -28 -87 -28c-34.667 0 -64.334 10.667 -89.001 32c-26 22 -40.333 48.333 -43 79h55c3.33301 -16 12.166 -30 26.499 -42s31.833 -18 52.5 -18s37.167 6 49.5 18s18.5 25.667 18.5 41s-5.5 29.333 -16.5 42s-27.833 19 -50.5 19h-47v47h43
c16 0 30 4.66699 42 14s18 21.166 18 35.499s-5.16699 26.333 -15.5 36s-25.333 14.5 -45 14.5s-35.167 -5.16699 -46.5 -15.5s-18.333 -22.166 -21 -35.499h-54c2.66699 27.333 14.334 51 35.001 71c22.667 21.333 50.834 32 84.501 32s61.667 -7.83301 84 -23.5
s33.5 -37.167 33.5 -64.5c0 -41.333 -17 -70 -51 -86z" />
    <glyph glyph-name="questiondown" unicode="&#xbf;" horiz-adv-x="507" 
d="M45.0283 14.0293c0 23.999 3.99609 45.3311 11.9951 63.9961c8 18.666 18.166 35.498 30.498 50.4971c12.333 14.999 25.666 28.832 39.999 41.498c14.333 12.665 27.832 25.9971 40.4971 39.9961c27.999 31.998 41.998 67.6621 41.998 106.993h72.9951
c0 -61.9961 -27.665 -118.326 -82.9951 -168.989c-33.9971 -29.998 -56.4951 -55.1631 -67.4941 -75.4951s-16.499 -38.8311 -16.499 -55.4971c0 -16.665 2 -31.4971 5.99902 -44.4961c4 -12.999 11 -25.165 20.999 -36.498
c22.665 -24.665 56.3301 -36.9971 100.994 -36.9971c45.9971 0 83.3281 13.666 111.993 40.9971c26.665 25.332 41.3311 56.6631 43.998 93.9941h70.9951c-2.66602 -56.6631 -23.665 -104.327 -62.9961 -142.991c-41.9971 -40.6641 -94.6602 -60.9961 -157.989 -60.9961
c-67.9951 0 -119.992 18.665 -155.99 55.9961c-32.665 33.998 -48.9971 76.6621 -48.9971 127.992zM198.016 398.006v101.994h96.9932v-101.994h-96.9932z" />
    <glyph glyph-name="Agrave" unicode="&#xc0;" horiz-adv-x="662" 
d="M659 0h-83l-81 192h-328l-81 -192h-83l281 662h94zM466 261l-135 323l-135 -323h270zM393 715h-61l-107 105h107z" />
    <glyph glyph-name="Aacute" unicode="&#xc1;" horiz-adv-x="662" 
d="M659 0h-83l-81 192h-328l-81 -192h-83l281 662h94zM466 261l-135 323l-135 -323h270zM328 820h107l-107 -105h-61z" />
    <glyph glyph-name="Acircumflex" unicode="&#xc2;" horiz-adv-x="662" 
d="M659 0h-83l-81 192h-328l-81 -192h-83l281 662h94zM466 261l-135 323l-135 -323h270zM390 715l-59 54l-59 -54h-82l98 105h87l97 -105h-82z" />
    <glyph glyph-name="Atilde" unicode="&#xc3;" horiz-adv-x="662" 
d="M659 0h-83l-81 192h-328l-81 -192h-83l281 662h94zM466 261l-135 323l-135 -323h270zM259 754c-23.333 0 -40.002 -13.001 -50.002 -39.001h-31c4.66699 44 23 74 55 90c12 5.33301 26 8 42 8c22 0 42.333 -4.66699 61 -14s32.834 -16.166 42.501 -20.499
s21 -6.5 34 -6.5s23.333 4.5 31 13.5s12.834 17.833 15.501 26.5h32c-10.667 -65.333 -42.667 -98 -96 -98c-24 0 -45 4.5 -63 13.5s-31.833 15.667 -41.5 20s-20.167 6.5 -31.5 6.5z" />
    <glyph glyph-name="Adieresis" unicode="&#xc4;" horiz-adv-x="662" 
d="M659 0h-83l-81 192h-328l-81 -192h-83l281 662h94zM466 261l-135 323l-135 -323h270zM297 803v-83h-89v83h89zM454 803v-83h-89v83h89z" />
    <glyph glyph-name="Aring" unicode="&#xc5;" horiz-adv-x="662" 
d="M279 651c-25.333 18 -38 41.001 -38 69.001s8.66699 50.667 26 68s38.333 26 63 26s46 -8.66699 64 -26c18 -16.667 27 -39.334 27 -68.001s-13 -51.667 -39 -69l277 -651h-83l-81 192h-328l-81 -192h-83zM466 261.001l-135 323l-135 -323h270zM300 693.001
c8.66699 -8.66699 19 -13 31 -13s22.333 4.33301 31 13s13 19.167 13 31.5s-4.33301 22.833 -13 31.5s-19 13 -31 13s-22.333 -4.33301 -31 -13s-13 -19.167 -13 -31.5s4.33301 -22.833 13 -31.5z" />
    <glyph glyph-name="AE" unicode="&#xc6;" horiz-adv-x="1022" 
d="M983 662v-72h-387v-222h343v-73h-343v-223h387v-72h-462v185h-309l-125 -185h-90l453 662h533zM521 590h-34l-228 -336h262v336z" />
    <glyph glyph-name="Ccedilla" unicode="&#xc7;" horiz-adv-x="690" 
d="M349 -54c6.66699 1.33301 13.9971 1.99902 21.9971 1.99902c25.333 0 47 -6.83301 65 -20.5s27 -32.5 27 -56.5c0 -39.333 -23.667 -64.666 -71 -75.999c-13.333 -3.33301 -30.166 -5 -50.499 -5s-40.666 4.16699 -60.999 12.5s-36.833 17.833 -49.5 28.5l19 33
c29.333 -20 57.666 -30 84.999 -30c36.667 0 55 12 55 36c0 10 -5.33301 18 -16 24s-22.5 9 -35.5 9s-25.167 -1.66699 -36.5 -5l-21 17l50 78c-90 6.66699 -161.667 42.334 -215 107.001c-51.333 62.667 -77 139.667 -77 231c0 96.667 28.333 176.667 85 240
c60 66 138.333 99 235 99c73.333 0 137 -19.333 191 -58c50.667 -36 87 -85.333 109 -148h-79c-17.333 40.667 -43.833 73 -79.5 97s-77.167 36 -124.5 36s-86.666 -6.83301 -117.999 -20.5s-57.666 -32.5 -78.999 -56.5c-43.333 -48.667 -65 -111.667 -65 -189
s21.667 -140.333 65 -189c45.333 -51.333 107.333 -77 186 -77c54.667 0 99.834 12 135.501 36s62.167 56.333 79.5 97h79c-20.667 -58.667 -55.334 -106.834 -104.001 -144.501s-108.667 -58.167 -180 -61.5z" />
    <glyph glyph-name="Egrave" unicode="&#xc8;" horiz-adv-x="608" 
d="M156 590v-222h368v-73h-368v-223h412v-72h-487v662h487v-72h-412zM385 715h-61l-107 105h107z" />
    <glyph glyph-name="Eacute" unicode="&#xc9;" horiz-adv-x="608" 
d="M156 590v-222h368v-73h-368v-223h412v-72h-487v662h487v-72h-412zM328 820h107l-107 -105h-61z" />
    <glyph glyph-name="Ecircumflex" unicode="&#xca;" horiz-adv-x="608" 
d="M156 590v-222h368v-73h-368v-223h412v-72h-487v662h487v-72h-412zM390 715l-59 54l-59 -54h-82l98 105h87l97 -105h-82z" />
    <glyph glyph-name="Edieresis" unicode="&#xcb;" horiz-adv-x="608" 
d="M156 590v-222h368v-73h-368v-223h412v-72h-487v662h487v-72h-412zM297 803v-83h-89v83h89zM454 803v-83h-89v83h89z" />
    <glyph glyph-name="Igrave" unicode="&#xcc;" horiz-adv-x="237" 
d="M156 0h-75v662h75v-662zM185 715h-61l-107 105h107z" />
    <glyph glyph-name="Iacute" unicode="&#xcd;" horiz-adv-x="237" 
d="M156 0h-75v662h75v-662zM112 820h107l-107 -105h-61z" />
    <glyph glyph-name="Icircumflex" unicode="&#xce;" horiz-adv-x="237" 
d="M156 0h-75v662h75v-662zM178 715l-59 54l-59 -54h-82l98 105h87l97 -105h-82z" />
    <glyph glyph-name="Idieresis" unicode="&#xcf;" horiz-adv-x="237" 
d="M156 0h-75v662h75v-662zM85 803v-83h-89v83h89zM242 803v-83h-89v83h89z" />
    <glyph glyph-name="Eth" unicode="&#xd0;" horiz-adv-x="712" 
d="M368 662c39.333 0 77.333 -7.5 114 -22.5s69 -36.833 97 -65.5c62 -63.333 93 -144.333 93 -243s-31 -179.667 -93 -243c-28 -28.667 -60.333 -50.5 -97 -65.5s-74.667 -22.5 -114 -22.5h-279v298h-82v65h82v299h279zM365 71c69.333 0 125.666 25.667 168.999 77
c42 49.333 63 110.333 63 183s-21 133.667 -63 183c-43.333 51.333 -99.666 77 -168.999 77h-201v-228h191v-65h-191v-227h201z" />
    <glyph glyph-name="Ntilde" unicode="&#xd1;" horiz-adv-x="733" 
d="M652 662v-662h-87l-409 559v-559h-75v662h87l409 -557v557h75zM295 754c-23.333 0 -40.002 -13.001 -50.002 -39.001h-31c4.66699 44 23 74 55 90c12 5.33301 26 8 42 8c22 0 42.333 -4.66699 61 -14s32.834 -16.166 42.501 -20.499s21 -6.5 34 -6.5s23.333 4.5 31 13.5
s12.834 17.833 15.501 26.5h32c-10.667 -65.333 -42.667 -98 -96 -98c-24 0 -45 4.5 -63 13.5s-31.833 15.667 -41.5 20s-20.167 6.5 -31.5 6.5z" />
    <glyph glyph-name="Ograve" unicode="&#xd2;" horiz-adv-x="750" 
d="M375 670c98.667 0 179.667 -33 243 -99c62 -64 93 -144 93 -240s-31 -176 -93 -240c-63.333 -66 -144.333 -99 -243 -99s-179.667 33 -243 99c-62 64 -93 144 -93 240s31 176 93 240c63.333 66 144.333 99 243 99zM375 65c78.667 0 142.334 25.667 191.001 77
c46.667 49.333 70 112.333 70 189s-23.333 139.667 -70 189c-48.667 51.333 -112.334 77 -191.001 77s-142.334 -25.667 -191.001 -77c-46.667 -49.333 -70 -112.333 -70 -189s23.333 -139.667 70 -189c48.667 -51.333 112.334 -77 191.001 -77zM444 715h-61l-107 105h107z
" />
    <glyph glyph-name="Oacute" unicode="&#xd3;" horiz-adv-x="750" 
d="M375 670c98.667 0 179.667 -33 243 -99c62 -64 93 -144 93 -240s-31 -176 -93 -240c-63.333 -66 -144.333 -99 -243 -99s-179.667 33 -243 99c-62 64 -93 144 -93 240s31 176 93 240c63.333 66 144.333 99 243 99zM375 65c78.667 0 142.334 25.667 191.001 77
c46.667 49.333 70 112.333 70 189s-23.333 139.667 -70 189c-48.667 51.333 -112.334 77 -191.001 77s-142.334 -25.667 -191.001 -77c-46.667 -49.333 -70 -112.333 -70 -189s23.333 -139.667 70 -189c48.667 -51.333 112.334 -77 191.001 -77zM363 820h107l-107 -105h-61z
" />
    <glyph glyph-name="Ocircumflex" unicode="&#xd4;" horiz-adv-x="750" 
d="M375 670c98.667 0 179.667 -33 243 -99c62 -64 93 -144 93 -240s-31 -176 -93 -240c-63.333 -66 -144.333 -99 -243 -99s-179.667 33 -243 99c-62 64 -93 144 -93 240s31 176 93 240c63.333 66 144.333 99 243 99zM375 65c78.667 0 142.334 25.667 191.001 77
c46.667 49.333 70 112.333 70 189s-23.333 139.667 -70 189c-48.667 51.333 -112.334 77 -191.001 77s-142.334 -25.667 -191.001 -77c-46.667 -49.333 -70 -112.333 -70 -189s23.333 -139.667 70 -189c48.667 -51.333 112.334 -77 191.001 -77zM434 715l-59 54l-59 -54h-82
l98 105h87l97 -105h-82z" />
    <glyph glyph-name="Otilde" unicode="&#xd5;" horiz-adv-x="750" 
d="M375 670c98.667 0 179.667 -33 243 -99c62 -64 93 -144 93 -240s-31 -176 -93 -240c-63.333 -66 -144.333 -99 -243 -99s-179.667 33 -243 99c-62 64 -93 144 -93 240s31 176 93 240c63.333 66 144.333 99 243 99zM375 65c78.667 0 142.334 25.667 191.001 77
c46.667 49.333 70 112.333 70 189s-23.333 139.667 -70 189c-48.667 51.333 -112.334 77 -191.001 77s-142.334 -25.667 -191.001 -77c-46.667 -49.333 -70 -112.333 -70 -189s23.333 -139.667 70 -189c48.667 -51.333 112.334 -77 191.001 -77zM301 754
c-23.333 0 -40.002 -13.001 -50.002 -39.001h-31c4.66699 44 23 74 55 90c12 5.33301 26 8 42 8c22 0 42.333 -4.66699 61 -14s32.834 -16.166 42.501 -20.499s21 -6.5 34 -6.5s23.333 4.5 31 13.5s12.834 17.833 15.501 26.5h32c-10.667 -65.333 -42.667 -98 -96 -98
c-24 0 -45 4.5 -63 13.5s-31.833 15.667 -41.5 20s-20.167 6.5 -31.5 6.5z" />
    <glyph glyph-name="Odieresis" unicode="&#xd6;" horiz-adv-x="750" 
d="M375 670c98.667 0 179.667 -33 243 -99c62 -64 93 -144 93 -240s-31 -176 -93 -240c-63.333 -66 -144.333 -99 -243 -99s-179.667 33 -243 99c-62 64 -93 144 -93 240s31 176 93 240c63.333 66 144.333 99 243 99zM375 65c78.667 0 142.334 25.667 191.001 77
c46.667 49.333 70 112.333 70 189s-23.333 139.667 -70 189c-48.667 51.333 -112.334 77 -191.001 77s-142.334 -25.667 -191.001 -77c-46.667 -49.333 -70 -112.333 -70 -189s23.333 -139.667 70 -189c48.667 -51.333 112.334 -77 191.001 -77zM341 803v-83h-89v83h89z
M498 803v-83h-89v83h89z" />
    <glyph glyph-name="multiply" unicode="&#xd7;" 
d="M325 257l153 -153l-49 -50l-154 154l-153 -154l-50 50l154 153l-154 154l50 49l153 -153l154 153l49 -49z" />
    <glyph glyph-name="Oslash" unicode="&#xd8;" horiz-adv-x="750" 
d="M375 670c80.667 0 150.668 -22.667 210.001 -68l67 78l32 -28l-68 -78c63.333 -63.333 95 -144.333 95 -243c0 -96 -31 -176 -93 -240c-63.333 -66 -144.333 -99 -243 -99c-78.667 0 -148.334 23 -209.001 69l-68 -78l-31 28l68 77c-64 65.333 -96 146.333 -96 243
c0 96 31 176 93 240c63.333 66 144.333 99 243 99zM536.001 547c-44.667 33.333 -98.332 50 -160.999 50c-78.667 0 -142.334 -25.667 -191.001 -77c-46.667 -49.333 -70 -112.333 -70 -189c0 -76 23 -138.333 69 -187zM214.003 116c45.333 -34 98.999 -51 160.999 -51
c78.667 0 142.334 25.667 191.001 77c46.667 49.333 70 112.333 70 189c0 76 -22.667 138.667 -68 188z" />
    <glyph glyph-name="Ugrave" unicode="&#xd9;" horiz-adv-x="709" 
d="M636 662l-0.000976562 -377c0 -88 -26.167 -158.833 -78.5 -212.5s-120.166 -80.5 -203.499 -80.5c-82.667 0 -150.167 26.833 -202.5 80.5s-78.5 124.5 -78.5 212.5v377h75v-379c0 -71.333 21.333 -127 64 -167c36.667 -34 84 -51 142 -51s105.667 17 143 51
c42.667 39.333 64 95 64 167v379h75zM411.999 715h-61l-107 105h107z" />
    <glyph glyph-name="Uacute" unicode="&#xda;" horiz-adv-x="709" 
d="M636 662l-0.000976562 -377c0 -88 -26.167 -158.833 -78.5 -212.5s-120.166 -80.5 -203.499 -80.5c-82.667 0 -150.167 26.833 -202.5 80.5s-78.5 124.5 -78.5 212.5v377h75v-379c0 -71.333 21.333 -127 64 -167c36.667 -34 84 -51 142 -51s105.667 17 143 51
c42.667 39.333 64 95 64 167v379h75zM354.999 820h107l-107 -105h-61z" />
    <glyph glyph-name="Ucircumflex" unicode="&#xdb;" horiz-adv-x="709" 
d="M636 662l-0.000976562 -377c0 -88 -26.167 -158.833 -78.5 -212.5s-120.166 -80.5 -203.499 -80.5c-82.667 0 -150.167 26.833 -202.5 80.5s-78.5 124.5 -78.5 212.5v377h75v-379c0 -71.333 21.333 -127 64 -167c36.667 -34 84 -51 142 -51s105.667 17 143 51
c42.667 39.333 64 95 64 167v379h75zM412.999 715l-59 54l-59 -54h-82l98 105h87l97 -105h-82z" />
    <glyph glyph-name="Udieresis" unicode="&#xdc;" horiz-adv-x="709" 
d="M636 662l-0.000976562 -377c0 -88 -26.167 -158.833 -78.5 -212.5s-120.166 -80.5 -203.499 -80.5c-82.667 0 -150.167 26.833 -202.5 80.5s-78.5 124.5 -78.5 212.5v377h75v-379c0 -71.333 21.333 -127 64 -167c36.667 -34 84 -51 142 -51s105.667 17 143 51
c42.667 39.333 64 95 64 167v379h75zM319.999 803v-83h-89v83h89zM476.999 803v-83h-89v83h89z" />
    <glyph glyph-name="Yacute" unicode="&#xdd;" horiz-adv-x="629" 
d="M352 0h-75v262l-278 400h91l224 -322l224 322h91l-277 -400v-262zM310 820h107l-107 -105h-61z" />
    <glyph glyph-name="Thorn" unicode="&#xde;" horiz-adv-x="627" 
d="M156 0h-75v662h75v-97h223c70 0 125.667 -19.333 167 -58c40.667 -38.667 61 -90.334 61 -155.001c0 -65.333 -20.5 -117.166 -61.5 -155.499s-96.5 -57.5 -166.5 -57.5h-223v-139zM156 494v-284.998h218c52 0 91.333 12.667 118 38s40 60.166 40 104.499
s-13.333 79.166 -40 104.499s-66 38 -118 38h-218z" />
    <glyph glyph-name="germandbls" unicode="&#xdf;" horiz-adv-x="557" 
d="M489 488c0 -78 -36.001 -128.333 -108.001 -151c60.667 -14 103.334 -47.333 128.001 -100c9.33301 -20 14 -44 14 -72c0 -53.333 -20.5 -94.166 -61.5 -122.499s-97.167 -42.5 -168.5 -42.5h-88v66h89c46 0 83 8.83301 111 26.5s42 45.5 42 83.5
s-16.667 68.833 -50 92.5s-81.333 35.5 -144 35.5v55c46 0 84 10.333 114 31c31.333 22.667 47 52.167 47 88.5s-11.167 66.166 -33.5 89.499s-56.5 35 -102.5 35c-66 0 -108.667 -21 -128 -63c-6.66699 -16 -10 -36 -10 -60v-480h-75v484c0 58 18.833 103.5 56.5 136.5
s90.167 49.5 157.5 49.5c59.333 0 108 -14.333 146 -43c42.667 -32.667 64 -79 64 -139z" />
    <glyph glyph-name="agrave" unicode="&#xe0;" horiz-adv-x="595" 
d="M455 80c-40 -58.667 -99.666 -88 -178.999 -88c-72 0 -130.667 25 -176 75c-44 49.333 -66 110.333 -66 183s22 133.667 66 183c45.333 50 105.666 75 180.999 75s133.333 -29.667 174 -89v81h75v-500h-75v80zM286.001 60c54 0 96.667 18.667 128 56
c30 35.333 45 80 45 134s-15 98.667 -45 134c-31.333 37.333 -74 56 -128 56c-53.333 0 -96.666 -18.667 -129.999 -56c-31.333 -35.333 -47 -80 -47 -134s15.667 -98.667 47 -134c33.333 -37.333 76.666 -56 129.999 -56zM332.001 570h-61l-107 105h107z" />
    <glyph glyph-name="aacute" unicode="&#xe1;" horiz-adv-x="595" 
d="M455 80c-40 -58.667 -99.666 -88 -178.999 -88c-72 0 -130.667 25 -176 75c-44 49.333 -66 110.333 -66 183s22 133.667 66 183c45.333 50 105.666 75 180.999 75s133.333 -29.667 174 -89v81h75v-500h-75v80zM286.001 60c54 0 96.667 18.667 128 56
c30 35.333 45 80 45 134s-15 98.667 -45 134c-31.333 37.333 -74 56 -128 56c-53.333 0 -96.666 -18.667 -129.999 -56c-31.333 -35.333 -47 -80 -47 -134s15.667 -98.667 47 -134c33.333 -37.333 76.666 -56 129.999 -56zM279.001 675h107l-107 -105h-61z" />
    <glyph glyph-name="acircumflex" unicode="&#xe2;" horiz-adv-x="595" 
d="M455 80c-40 -58.667 -99.666 -88 -178.999 -88c-72 0 -130.667 25 -176 75c-44 49.333 -66 110.333 -66 183s22 133.667 66 183c45.333 50 105.666 75 180.999 75s133.333 -29.667 174 -89v81h75v-500h-75v80zM286.001 60c54 0 96.667 18.667 128 56
c30 35.333 45 80 45 134s-15 98.667 -45 134c-31.333 37.333 -74 56 -128 56c-53.333 0 -96.666 -18.667 -129.999 -56c-31.333 -35.333 -47 -80 -47 -134s15.667 -98.667 47 -134c33.333 -37.333 76.666 -56 129.999 -56zM336.001 570l-59 54l-59 -54h-82l98 105h87
l97 -105h-82z" />
    <glyph glyph-name="atilde" unicode="&#xe3;" horiz-adv-x="595" 
d="M455 80c-40 -58.667 -99.666 -88 -178.999 -88c-72 0 -130.667 25 -176 75c-44 49.333 -66 110.333 -66 183s22 133.667 66 183c45.333 50 105.666 75 180.999 75s133.333 -29.667 174 -89v81h75v-500h-75v80zM286.001 60c54 0 96.667 18.667 128 56
c30 35.333 45 80 45 134s-15 98.667 -45 134c-31.333 37.333 -74 56 -128 56c-53.333 0 -96.666 -18.667 -129.999 -56c-31.333 -35.333 -47 -80 -47 -134s15.667 -98.667 47 -134c33.333 -37.333 76.666 -56 129.999 -56zM216.001 609
c-23.333 0 -40.002 -13.001 -50.002 -39.001h-31c4.66699 44 23 74 55 90c12 5.33301 26 8 42 8c22 0 42.333 -4.66699 61 -14s32.834 -16.166 42.501 -20.499s21 -6.5 34 -6.5s23.333 4.5 31 13.5s12.834 17.833 15.501 26.5h32c-10.667 -65.333 -42.667 -98 -96 -98
c-24 0 -45 4.5 -63 13.5s-31.833 15.667 -41.5 20s-20.167 6.5 -31.5 6.5z" />
    <glyph glyph-name="adieresis" unicode="&#xe4;" horiz-adv-x="595" 
d="M455 80c-40 -58.667 -99.666 -88 -178.999 -88c-72 0 -130.667 25 -176 75c-44 49.333 -66 110.333 -66 183s22 133.667 66 183c45.333 50 105.666 75 180.999 75s133.333 -29.667 174 -89v81h75v-500h-75v80zM286.001 60c54 0 96.667 18.667 128 56
c30 35.333 45 80 45 134s-15 98.667 -45 134c-31.333 37.333 -74 56 -128 56c-53.333 0 -96.666 -18.667 -129.999 -56c-31.333 -35.333 -47 -80 -47 -134s15.667 -98.667 47 -134c33.333 -37.333 76.666 -56 129.999 -56zM246.001 662v-83h-89v83h89zM403.001 662v-83h-89
v83h89z" />
    <glyph glyph-name="aring" unicode="&#xe5;" horiz-adv-x="595" 
d="M455 80c-40 -58.667 -99.666 -88 -178.999 -88c-72 0 -130.667 25 -176 75c-44 49.333 -66 110.333 -66 183s22 133.667 66 183c45.333 50 105.666 75 180.999 75s133.333 -29.667 174 -89v81h75v-500h-75v80zM286.001 60c54 0 96.667 18.667 128 56
c30 35.333 45 80 45 134s-15 98.667 -45 134c-31.333 37.333 -74 56 -128 56c-53.333 0 -96.666 -18.667 -129.999 -56c-31.333 -35.333 -47 -80 -47 -134s15.667 -98.667 47 -134c33.333 -37.333 76.666 -56 129.999 -56zM279.001 556c-24.667 0 -45.667 8.66699 -63 26
s-26 38.5 -26 63.5s8.66699 46.167 26 63.5s38.333 26 63 26s46 -8.5 64 -25.5s27 -38.333 27 -64s-9 -47 -27 -64s-39.333 -25.5 -64 -25.5zM249.001 614c8.66699 -8.66699 19 -13 31 -13s22.333 4.33301 31 13s13 19.167 13 31.5s-4.33301 22.833 -13 31.5s-19 13 -31 13
s-22.333 -4.33301 -31 -13s-13 -19.167 -13 -31.5s4.33301 -22.833 13 -31.5z" />
    <glyph glyph-name="ae" unicode="&#xe6;" horiz-adv-x="977" 
d="M530 428c38.667 53.333 96.002 80.001 172.002 80.001c74.667 0 135.334 -25 182.001 -75c44 -48 66 -109 66 -183v-30h-419c6 -47.333 23.667 -85.333 53 -114c32.667 -30.667 74 -46 124 -46c37.333 0 68.166 9 92.499 27s43.166 41.333 56.499 70h80
c-16 -48.667 -44.5 -88.334 -85.5 -119.001s-90.833 -46 -149.5 -46c-76 0 -133.333 26.333 -172 79v-71h-75v80c-40 -58.667 -99.667 -88 -179 -88c-72 0 -130.667 25 -176 75c-44 49.333 -66 110.333 -66 183s22 133.667 66 183c45.333 50 105.666 75 180.999 75
s133.333 -29.667 174 -89v81h75v-72zM286.002 60.001c54 0 96.667 18.667 128 56c30 35.333 45 80 45 134s-15 98.667 -45 134c-31.333 37.333 -74 56 -128 56c-53.333 0 -96.666 -18.667 -129.999 -56c-31.333 -35.333 -47 -80 -47 -134s15.667 -98.667 47 -134
c33.333 -37.333 76.666 -56 129.999 -56zM872.002 290.001c-6.66699 44 -24.667 79.667 -54 107c-31.333 28.667 -70 43 -116 43s-84.667 -14.333 -116 -43c-29.333 -27.333 -47.333 -63 -54 -107h340z" />
    <glyph glyph-name="ccedilla" unicode="&#xe7;" horiz-adv-x="544" 
d="M273 -54c6.66699 1.33301 13.9971 2 21.9971 2c25.333 0 47 -6.83301 65 -20.5s27 -32.5 27 -56.5c0 -39.333 -23.667 -64.666 -71 -75.999c-13.333 -3.33301 -30.166 -5 -50.499 -5s-40.666 4.16699 -60.999 12.5s-36.833 17.833 -49.5 28.5l19 33
c29.333 -20 57.666 -30 84.999 -30c36.667 0 55 12 55 36c0 10 -5.33301 18 -16 24s-22.5 9 -35.5 9s-25.167 -1.66699 -36.5 -5l-21 17l50 79c-67.333 5.33301 -121 32.666 -161 81.999c-40 48 -60 106 -60 174c0 73.333 22.333 134.333 67 183c46 50 105.667 75 179 75
c58.667 0 109.334 -15.333 152.001 -46c40.667 -30 68.667 -69.667 84 -119h-81c-11.333 28.667 -29.333 52 -54 70s-53 27 -85 27s-59.167 -5 -81.5 -15s-41.166 -23.667 -56.499 -41c-32.667 -36 -49 -80.667 -49 -134s16.333 -98 49 -134
c33.333 -37.333 77.333 -56 132 -56c36 0 66.333 9 91 27s42.667 41.333 54 70h81c-14 -46 -40 -84 -78 -114s-84.333 -46.667 -139 -50z" />
    <glyph glyph-name="egrave" unicode="&#xe8;" horiz-adv-x="557" 
d="M288 60c67.333 0 115.665 28 144.998 84h82c-17.333 -45.333 -44.833 -82 -82.5 -110s-86.167 -42 -145.5 -42c-75.333 0 -136.666 25 -183.999 75c-46 48.667 -69 109.667 -69 183c0 74 22 135 66 183c46.667 50 107.334 75 182.001 75s135.334 -25 182.001 -75
c44 -48 66 -109 66 -183v-30h-419c5.33301 -46 23.666 -84 54.999 -114c32 -30.667 72.667 -46 122 -46zM281.999 440c-46 0 -84.667 -14.333 -116 -43c-29.333 -27.333 -47.333 -63 -54 -107h340c-6.66699 44 -24.667 79.667 -54 107c-31.333 28.667 -70 43 -116 43z
M345.999 570h-61l-107 105h107z" />
    <glyph glyph-name="eacute" unicode="&#xe9;" horiz-adv-x="557" 
d="M288 60c67.333 0 115.665 28 144.998 84h82c-17.333 -45.333 -44.833 -82 -82.5 -110s-86.167 -42 -145.5 -42c-75.333 0 -136.666 25 -183.999 75c-46 48.667 -69 109.667 -69 183c0 74 22 135 66 183c46.667 50 107.334 75 182.001 75s135.334 -25 182.001 -75
c44 -48 66 -109 66 -183v-30h-419c5.33301 -46 23.666 -84 54.999 -114c32 -30.667 72.667 -46 122 -46zM281.999 440c-46 0 -84.667 -14.333 -116 -43c-29.333 -27.333 -47.333 -63 -54 -107h340c-6.66699 44 -24.667 79.667 -54 107c-31.333 28.667 -70 43 -116 43z
M271.999 675h107l-107 -105h-61z" />
    <glyph glyph-name="ecircumflex" unicode="&#xea;" horiz-adv-x="557" 
d="M288 60c67.333 0 115.665 28 144.998 84h82c-17.333 -45.333 -44.833 -82 -82.5 -110s-86.167 -42 -145.5 -42c-75.333 0 -136.666 25 -183.999 75c-46 48.667 -69 109.667 -69 183c0 74 22 135 66 183c46.667 50 107.334 75 182.001 75s135.334 -25 182.001 -75
c44 -48 66 -109 66 -183v-30h-419c5.33301 -46 23.666 -84 54.999 -114c32 -30.667 72.667 -46 122 -46zM281.999 440c-46 0 -84.667 -14.333 -116 -43c-29.333 -27.333 -47.333 -63 -54 -107h340c-6.66699 44 -24.667 79.667 -54 107c-31.333 28.667 -70 43 -116 43z
M340.999 570l-59 54l-59 -54h-82l98 105h87l97 -105h-82z" />
    <glyph glyph-name="edieresis" unicode="&#xeb;" horiz-adv-x="557" 
d="M288 60c67.333 0 115.665 28 144.998 84h82c-17.333 -45.333 -44.833 -82 -82.5 -110s-86.167 -42 -145.5 -42c-75.333 0 -136.666 25 -183.999 75c-46 48.667 -69 109.667 -69 183c0 74 22 135 66 183c46.667 50 107.334 75 182.001 75s135.334 -25 182.001 -75
c44 -48 66 -109 66 -183v-30h-419c5.33301 -46 23.666 -84 54.999 -114c32 -30.667 72.667 -46 122 -46zM281.999 440c-46 0 -84.667 -14.333 -116 -43c-29.333 -27.333 -47.333 -63 -54 -107h340c-6.66699 44 -24.667 79.667 -54 107c-31.333 28.667 -70 43 -116 43z
M247.999 662v-83h-89v83h89zM404.999 662v-83h-89v83h89z" />
    <glyph glyph-name="igrave" unicode="&#xec;" horiz-adv-x="205" 
d="M65 500h75v-500h-75v500zM172 570h-61l-107 105h107z" />
    <glyph glyph-name="iacute" unicode="&#xed;" horiz-adv-x="205" 
d="M65 500h75v-500h-75v500zM96 675h107l-107 -105h-61z" />
    <glyph glyph-name="icircumflex" unicode="&#xee;" horiz-adv-x="205" 
d="M65 500h75v-500h-75v500zM162 570l-59 54l-59 -54h-82l98 105h87l97 -105h-82z" />
    <glyph glyph-name="idieresis" unicode="&#xef;" horiz-adv-x="205" 
d="M65 500h75v-500h-75v500zM69 662v-83h-89v83h89zM226 662v-83h-89v83h89z" />
    <glyph glyph-name="eth" unicode="&#xf0;" horiz-adv-x="573" 
d="M342 625c60.667 -48.667 105.333 -96.999 134 -144.999c36 -61.333 54 -131.666 54 -210.999c0 -75.333 -21.333 -139 -64 -191c-46.667 -57.333 -106.667 -86 -180 -86c-78.667 0 -141.334 26 -188.001 78c-42.667 46.667 -64 107.667 -64 183
c0 73.333 20.667 135 62 185c42 50.667 97.667 76 167 76c60.667 0 109.334 -19.667 146.001 -59c-19.333 37.333 -51.333 71.666 -96 102.999l-35 24l-56 -37l-32 38l43 28c-22 12.667 -43.333 23.667 -64 33l27 71c35.333 -16.667 70 -36.334 104 -59.001l75 50l32 -38z
M281.999 59.001c53.333 0 96 19.667 128 59c30 36.667 45 81.667 45 135c0 52.667 -16.333 97.667 -49 135c-34 39.333 -78 59 -132 59c-51.333 0 -92.333 -19 -123 -57c-28 -36 -42 -81.667 -42 -137c0 -53.333 15 -98.333 45 -135c32 -39.333 74.667 -59 128 -59z" />
    <glyph glyph-name="ntilde" unicode="&#xf1;" horiz-adv-x="566" 
d="M140 500v-77.998c18 24 40 44.333 66 61s55.667 25 89 25s62 -4.66699 86 -14s45 -23.333 63 -42c41.333 -40.667 62 -94.334 62 -161.001v-291h-75v289c0 46 -13 82.667 -39 110s-59.667 41 -101 41c-42 0 -77.667 -14 -107 -42
c-29.333 -28.667 -44 -65.334 -44 -110.001v-288h-75v500h75zM212 609.002c-23.333 0 -40.002 -13.001 -50.002 -39.001h-31c4.66699 44 23 74 55 90c12 5.33301 26 8 42 8c22 0 42.333 -4.66699 61 -14s32.834 -16.166 42.501 -20.499s21 -6.5 34 -6.5s23.333 4.5 31 13.5
s12.834 17.833 15.501 26.5h32c-10.667 -65.333 -42.667 -98 -96 -98c-24 0 -45 4.5 -63 13.5s-31.833 15.667 -41.5 20s-20.167 6.5 -31.5 6.5z" />
    <glyph glyph-name="ograve" unicode="&#xf2;" horiz-adv-x="564" 
d="M282 508c74.667 0 135.334 -25 182.001 -75c44 -48 66 -109 66 -183s-22 -135 -66 -183c-46.667 -50 -107.334 -75 -182.001 -75s-135.334 25 -182.001 75c-44 48 -66 109 -66 183s22 135 66 183c46.667 50 107.334 75 182.001 75zM282 60c54 0 96.667 18.667 128 56
c30 35.333 45 80 45 134s-15 98.667 -45 134c-31.333 37.333 -74 56 -128 56s-96.667 -18.667 -128 -56c-30 -35.333 -45 -80 -45 -134s15 -98.667 45 -134c31.333 -37.333 74 -56 128 -56zM349 570h-61l-107 105h107z" />
    <glyph glyph-name="oacute" unicode="&#xf3;" horiz-adv-x="564" 
d="M282 508c74.667 0 135.334 -25 182.001 -75c44 -48 66 -109 66 -183s-22 -135 -66 -183c-46.667 -50 -107.334 -75 -182.001 -75s-135.334 25 -182.001 75c-44 48 -66 109 -66 183s22 135 66 183c46.667 50 107.334 75 182.001 75zM282 60c54 0 96.667 18.667 128 56
c30 35.333 45 80 45 134s-15 98.667 -45 134c-31.333 37.333 -74 56 -128 56s-96.667 -18.667 -128 -56c-30 -35.333 -45 -80 -45 -134s15 -98.667 45 -134c31.333 -37.333 74 -56 128 -56zM271 675h107l-107 -105h-61z" />
    <glyph glyph-name="ocircumflex" unicode="&#xf4;" horiz-adv-x="564" 
d="M282 508c74.667 0 135.334 -25 182.001 -75c44 -48 66 -109 66 -183s-22 -135 -66 -183c-46.667 -50 -107.334 -75 -182.001 -75s-135.334 25 -182.001 75c-44 48 -66 109 -66 183s22 135 66 183c46.667 50 107.334 75 182.001 75zM282 60c54 0 96.667 18.667 128 56
c30 35.333 45 80 45 134s-15 98.667 -45 134c-31.333 37.333 -74 56 -128 56s-96.667 -18.667 -128 -56c-30 -35.333 -45 -80 -45 -134s15 -98.667 45 -134c31.333 -37.333 74 -56 128 -56zM341 570l-59 54l-59 -54h-82l98 105h87l97 -105h-82z" />
    <glyph glyph-name="otilde" unicode="&#xf5;" horiz-adv-x="564" 
d="M282 508c74.667 0 135.334 -25 182.001 -75c44 -48 66 -109 66 -183s-22 -135 -66 -183c-46.667 -50 -107.334 -75 -182.001 -75s-135.334 25 -182.001 75c-44 48 -66 109 -66 183s22 135 66 183c46.667 50 107.334 75 182.001 75zM282 60c54 0 96.667 18.667 128 56
c30 35.333 45 80 45 134s-15 98.667 -45 134c-31.333 37.333 -74 56 -128 56s-96.667 -18.667 -128 -56c-30 -35.333 -45 -80 -45 -134s15 -98.667 45 -134c31.333 -37.333 74 -56 128 -56zM210 609c-23.333 0 -40.002 -13.001 -50.002 -39.001h-31c4.66699 44 23 74 55 90
c12 5.33301 26 8 42 8c22 0 42.333 -4.66699 61 -14s32.834 -16.166 42.501 -20.499s21 -6.5 34 -6.5s23.333 4.5 31 13.5s12.834 17.833 15.501 26.5h32c-10.667 -65.333 -42.667 -98 -96 -98c-24 0 -45 4.5 -63 13.5s-31.833 15.667 -41.5 20s-20.167 6.5 -31.5 6.5z" />
    <glyph glyph-name="odieresis" unicode="&#xf6;" horiz-adv-x="564" 
d="M282 508c74.667 0 135.334 -25 182.001 -75c44 -48 66 -109 66 -183s-22 -135 -66 -183c-46.667 -50 -107.334 -75 -182.001 -75s-135.334 25 -182.001 75c-44 48 -66 109 -66 183s22 135 66 183c46.667 50 107.334 75 182.001 75zM282 60c54 0 96.667 18.667 128 56
c30 35.333 45 80 45 134s-15 98.667 -45 134c-31.333 37.333 -74 56 -128 56s-96.667 -18.667 -128 -56c-30 -35.333 -45 -80 -45 -134s15 -98.667 45 -134c31.333 -37.333 74 -56 128 -56zM248 662v-83h-89v83h89zM405 662v-83h-89v83h89z" />
    <glyph glyph-name="divide" unicode="&#xf7;" 
d="M512 269v-69h-474v69h474zM231 110h88v-93h-88v93zM231 452h88v-93h-88v93z" />
    <glyph glyph-name="oslash" unicode="&#xf8;" horiz-adv-x="564" 
d="M282 508c61.333 0 113.667 -17.334 157 -52.001l54 60l26 -23l-54 -62c43.333 -47.333 65 -107.666 65 -180.999c0 -74 -22 -135 -66 -183c-46.667 -50 -107.334 -75 -182.001 -75c-62.667 0 -114.667 17.333 -156 52l-54 -61l-26 23l54 62c-44 48 -66 108.667 -66 182
c0 74 22 135 66 183c46.667 50 107.334 75 182.001 75zM392.001 401.999c-29.333 25.333 -66 38 -110 38c-54 0 -96.667 -18.667 -128 -56c-30 -35.333 -45 -80 -45 -134c0 -50 13.333 -92.333 40 -127zM416.001 375.999l-243.001 -278c29.333 -25.333 68.333 -38 117 -38
s88.334 18.167 119.001 54.5s46 80.5 46 132.5s-13 95 -39 129z" />
    <glyph glyph-name="ugrave" unicode="&#xf9;" horiz-adv-x="566" 
d="M426 0v77.998c-18 -24 -40 -44.333 -66 -61s-55.667 -25 -89 -25s-62 4.66699 -86 14s-45 23.333 -63 42c-41.333 40.667 -62 94.334 -62 161.001v291h75v-289c0 -46 13 -82.667 39 -110s59.667 -41 101 -41c42 0 77.667 14 107 42c29.333 28.667 44 65.334 44 110.001
v288h75v-500h-75zM343 569.998h-61l-107 105h107z" />
    <glyph glyph-name="uacute" unicode="&#xfa;" horiz-adv-x="566" 
d="M426 0v77.998c-18 -24 -40 -44.333 -66 -61s-55.667 -25 -89 -25s-62 4.66699 -86 14s-45 23.333 -63 42c-41.333 40.667 -62 94.334 -62 161.001v291h75v-289c0 -46 13 -82.667 39 -110s59.667 -41 101 -41c42 0 77.667 14 107 42c29.333 28.667 44 65.334 44 110.001
v288h75v-500h-75zM276 674.998h107l-107 -105h-61z" />
    <glyph glyph-name="ucircumflex" unicode="&#xfb;" horiz-adv-x="566" 
d="M426 0v77.998c-18 -24 -40 -44.333 -66 -61s-55.667 -25 -89 -25s-62 4.66699 -86 14s-45 23.333 -63 42c-41.333 40.667 -62 94.334 -62 161.001v291h75v-289c0 -46 13 -82.667 39 -110s59.667 -41 101 -41c42 0 77.667 14 107 42c29.333 28.667 44 65.334 44 110.001
v288h75v-500h-75zM339 569.998l-59 54l-59 -54h-82l98 105h87l97 -105h-82z" />
    <glyph glyph-name="udieresis" unicode="&#xfc;" horiz-adv-x="566" 
d="M426 0v77.998c-18 -24 -40 -44.333 -66 -61s-55.667 -25 -89 -25s-62 4.66699 -86 14s-45 23.333 -63 42c-41.333 40.667 -62 94.334 -62 161.001v291h75v-289c0 -46 13 -82.667 39 -110s59.667 -41 101 -41c42 0 77.667 14 107 42c29.333 28.667 44 65.334 44 110.001
v288h75v-500h-75zM246 661.998v-83h-89v83h89zM403 661.998v-83h-89v83h89z" />
    <glyph glyph-name="yacute" unicode="&#xfd;" horiz-adv-x="497" 
d="M198 -198h-81l91 205l-204 493h83l161 -410l164 410h82zM250 675h107l-107 -105h-61z" />
    <glyph glyph-name="thorn" unicode="&#xfe;" horiz-adv-x="594" 
d="M140 419c40.667 59.333 100.334 89 179.001 89c72 0 130.333 -25 175 -75c44.667 -49.333 67 -110.333 67 -183s-22.333 -133.667 -67 -183c-44.667 -50 -104.834 -75 -180.501 -75s-133.5 29.333 -173.5 88v-278h-75v898h75v-281zM309 60
c53.333 0 96.666 18.667 129.999 56c31.333 35.333 47 80 47 134s-15.667 98.667 -47 134c-33.333 37.333 -76.666 56 -129.999 56c-54 0 -96.667 -18.667 -128 -56c-30 -35.333 -45 -80 -45 -134s15 -98.667 45 -134c31.333 -37.333 74 -56 128 -56z" />
    <glyph glyph-name="ydieresis" unicode="&#xff;" horiz-adv-x="497" 
d="M198 -198h-81l91 205l-204 493h83l161 -410l164 410h82zM215 662v-83h-89v83h89zM372 662v-83h-89v83h89z" />
    <glyph glyph-name="dotlessi" unicode="&#x131;" horiz-adv-x="205" 
d="M65 500h75v-500h-75v500z" />
    <glyph glyph-name="OE" unicode="&#x152;" horiz-adv-x="1144" 
d="M612 553v109h492v-72h-417v-223h373v-73h-373v-222h417v-72h-492v108c-58.667 -77.333 -141 -116 -247 -116c-98 0 -177.667 33 -239 99c-58 63.333 -87 143.333 -87 240s29 176.667 87 240c61.333 66 142.833 99 244.5 99s182.167 -39 241.5 -117zM365 65
c78.667 0 140.667 25.667 186 77c43.333 48.667 65 111.667 65 189s-21.667 140.333 -65 189c-45.333 51.333 -107.333 77 -186 77s-140.667 -25.667 -186 -77c-43.333 -48.667 -65 -111.667 -65 -189s21.667 -140.333 65 -189c45.333 -51.333 107.333 -77 186 -77z" />
    <glyph glyph-name="oe" unicode="&#x153;" horiz-adv-x="972" 
d="M570 474.5c34.667 22.333 74.002 33.501 118.002 33.501s81.333 -6.66699 112 -20s56.667 -31.666 78 -54.999c44.667 -48 67 -109 67 -183v-30h-419c6 -47.333 24 -85.333 54 -114c32 -30.667 73 -46 123 -46c37.333 0 68.166 9 92.499 27s43.166 41.333 56.499 70h80
c-16 -48.667 -44.5 -88.334 -85.5 -119.001s-88.5 -46 -142.5 -46c-100.667 0 -172.334 40.333 -215.001 121c-18.667 -36.667 -45.334 -66 -80.001 -88s-74 -33 -118 -33s-81.333 6.66699 -112 20s-57 31.666 -79 54.999c-44 48 -66 109 -66 183s22 135 66 183
c46.667 50 107.334 75 182.001 75c50 0 92.333 -11.167 127 -33.5s61.334 -51.833 80.001 -88.5c19.333 36.667 46.333 66.167 81 88.5zM282.002 60.001c54 0 96.667 18.667 128 56c30 35.333 45 80 45 134s-15 98.667 -45 134c-31.333 37.333 -74 56 -128 56
s-96.667 -18.667 -128 -56c-30 -35.333 -45 -80 -45 -134s15 -98.667 45 -134c31.333 -37.333 74 -56 128 -56zM867.002 290.001c-6.66699 44 -25 79.667 -55 107c-30.667 28.667 -69 43 -115 43s-84.333 -14.333 -115 -43c-30 -27.333 -48.333 -63 -55 -107h340z" />
    <glyph glyph-name="Ydieresis" unicode="&#x178;" horiz-adv-x="629" 
d="M352 0h-75v262l-278 400h91l224 -322l224 322h91l-277 -400v-262zM280 803v-83h-89v83h89zM437 803v-83h-89v83h89z" />
    <glyph glyph-name="longs" unicode="&#x17f;" horiz-adv-x="239" 
d="M280 637c-35.333 0 -61.833 -7.83203 -79.5 -23.499s-26.5 -40.834 -26.5 -75.501v-538h-75v434h-86v66h86v44c0 54.667 16.333 95.667 49 123s78 41 136 41h6v-71h-10z" />
    <glyph glyph-name="florin" unicode="&#x192;" horiz-adv-x="332" 
d="M364 708l-11.9971 -71h-10c-34.667 0 -62.334 -7 -83.001 -21s-34.334 -40 -41.001 -78l-21 -122h116v-49h-125l-65 -358c-17.333 -100 -82.666 -152.667 -195.999 -158l11 59c63.333 4.66699 99.666 35.667 108.999 93l66 364h-86v49h95l22 128
c10.667 60 34.667 102.333 72 127s84.666 37 141.999 37h6z" />
    <glyph glyph-name="Oslashacute" unicode="&#x1fe;" horiz-adv-x="750" 
d="M375 670c80.667 0 150.668 -22.667 210.001 -68l67 78l32 -28l-68 -78c63.333 -63.333 95 -144.333 95 -243c0 -96 -31 -176 -93 -240c-63.333 -66 -144.333 -99 -243 -99c-78.667 0 -148.334 23 -209.001 69l-68 -78l-31 28l68 77c-64 65.333 -96 146.333 -96 243
c0 96 31 176 93 240c63.333 66 144.333 99 243 99zM536.001 547c-44.667 33.333 -98.332 50 -160.999 50c-78.667 0 -142.334 -25.667 -191.001 -77c-46.667 -49.333 -70 -112.333 -70 -189c0 -76 23 -138.333 69 -187zM214.003 116c45.333 -34 98.999 -51 160.999 -51
c78.667 0 142.334 25.667 191.001 77c46.667 49.333 70 112.333 70 189c0 76 -22.667 138.667 -68 188zM363.002 820h107l-107 -105h-61z" />
    <glyph glyph-name="oslashacute" unicode="&#x1ff;" horiz-adv-x="564" 
d="M282 508c61.333 0 113.667 -17.334 157 -52.001l54 60l26 -23l-54 -62c43.333 -47.333 65 -107.666 65 -180.999c0 -74 -22 -135 -66 -183c-46.667 -50 -107.334 -75 -182.001 -75c-62.667 0 -114.667 17.333 -156 52l-54 -61l-26 23l54 62c-44 48 -66 108.667 -66 182
c0 74 22 135 66 183c46.667 50 107.334 75 182.001 75zM392.001 401.999c-29.333 25.333 -66 38 -110 38c-54 0 -96.667 -18.667 -128 -56c-30 -35.333 -45 -80 -45 -134c0 -50 13.333 -92.333 40 -127zM416.001 375.999l-243.001 -278c29.333 -25.333 68.333 -38 117 -38
s88.334 18.167 119.001 54.5s46 80.5 46 132.5s-13 95 -39 129zM271 674.999h107l-107 -105h-61z" />
    <glyph glyph-name="circumflex" unicode="&#x2c6;" horiz-adv-x="384" 
d="M249 570l-59 54l-59 -54h-82l98 105h87l97 -105h-82z" />
    <glyph glyph-name="caron" unicode="&#x2c7;" horiz-adv-x="381" 
d="M331 675l-97 -105h-87l-98 105h82l59 -54l59 54h82z" />
    <glyph glyph-name="breve" unicode="&#x2d8;" horiz-adv-x="465" 
d="M338 691c4 -9.33301 6.00098 -19.833 6.00098 -31.5s-3.16699 -23.167 -9.5 -34.5s-14.833 -21.333 -25.5 -30c-22.667 -18.667 -50.334 -28 -83.001 -28c-33.333 0 -61.333 9.33301 -84 28c-23.333 18.667 -35 41 -35 67c0 5.33301 0.666992 10.333 2 15l4 14h18
c2 -19.333 12 -35 30 -47s39.5 -18 64.5 -18s46.5 6 64.5 18s28 27.667 30 47h18z" />
    <glyph glyph-name="dotaccent" unicode="&#x2d9;" horiz-adv-x="235" 
d="M163 662v-83h-89v83h89z" />
    <glyph glyph-name="ring" unicode="&#x2da;" horiz-adv-x="323" 
d="M163 556c-24.667 0 -45.667 8.66699 -63 26s-26 38.5 -26 63.5s8.66699 46.167 26 63.5s38.333 26 63 26s46 -8.5 64 -25.5s27 -38.333 27 -64s-9 -47 -27 -64s-39.333 -25.5 -64 -25.5zM133 614c8.66699 -8.66699 19 -13 31 -13s22.333 4.33301 31 13s13 19.167 13 31.5
s-4.33301 22.833 -13 31.5s-19 13 -31 13s-22.333 -4.33301 -31 -13s-13 -19.167 -13 -31.5s4.33301 -22.833 13 -31.5z" />
    <glyph glyph-name="ogonek" unicode="&#x2db;" horiz-adv-x="309" 
d="M239 -168c-30 -16.667 -58.332 -25 -84.999 -25s-49.5 6 -68.5 18s-28.5 28.5 -28.5 49.5s3.83301 37.833 11.5 50.5s17.5 23.667 29.5 33c16.667 14.667 41.667 29.334 75 44.001h56l-27 -15c-45.333 -24.667 -68 -50.334 -68 -77.001c0 -16.667 6.16699 -29 18.5 -37
s27.166 -12 44.499 -12s31.333 3.33301 42 10v-39z" />
    <glyph glyph-name="tilde" unicode="&#x2dc;" horiz-adv-x="463" 
d="M152 609c-23.333 0 -40.002 -13.001 -50.002 -39.001h-31c4.66699 44 23 74 55 90c12 5.33301 26 8 42 8c22 0 42.333 -4.66699 61 -14s32.834 -16.166 42.501 -20.499s21 -6.5 34 -6.5s23.333 4.5 31 13.5s12.834 17.833 15.501 26.5h32
c-10.667 -65.333 -42.667 -98 -96 -98c-24 0 -45 4.5 -63 13.5s-31.833 15.667 -41.5 20s-20.167 6.5 -31.5 6.5z" />
    <glyph glyph-name="hungarumlaut" unicode="&#x2dd;" horiz-adv-x="523" 
d="M147 675h107l-107 -105h-61zM303 675h107l-107 -105h-61z" />
    <glyph glyph-name="Omega" unicode="&#x3a9;" horiz-adv-x="678" 
d="M115 343c0 -125.333 55.001 -219.995 165.001 -283.995v-59h-226v59h143c-68.667 49.333 -115 115.666 -139 198.999c-8.66699 29.333 -13 63.166 -13 101.499s7 76.666 21 114.999s34 72.166 60 101.499c56.667 62.667 127.667 94 213 94s156.333 -31.333 213 -94
c54 -60.667 81 -135 81 -223c0 -62.667 -15.667 -121.667 -47 -177c-26.667 -47.333 -62 -86.333 -106 -117h144v-59h-226v59c110 64 165 158.667 165 284c0 68 -19.667 126.667 -59 176c-42 53.333 -97 80 -165 80c-68.667 0 -124.334 -26.667 -167.001 -80
c-38 -48.667 -57 -107.334 -57 -176.001z" />
    <glyph glyph-name="pi" unicode="&#x3c0;" horiz-adv-x="578" 
d="M460 119c0 -48 25 -72 75 -72v-54c-46.667 0 -81.667 8.66699 -105 26c-28.667 21.333 -43 58 -43 110v295h-197v-424h-74v424h-97v66h538v-66h-97v-305z" />
    <glyph glyph-name="endash" unicode="&#x2013;" horiz-adv-x="610" 
d="M55 329h500v-67h-500v67z" />
    <glyph glyph-name="emdash" unicode="&#x2014;" horiz-adv-x="1146" 
d="M73 329h1000v-67h-1000v67z" />
    <glyph glyph-name="quoteleft" unicode="&#x2018;" horiz-adv-x="218" 
d="M134 475h-98l88 213h68z" />
    <glyph glyph-name="quoteright" unicode="&#x2019;" horiz-adv-x="211" 
d="M98 688h98l-88 -213h-68z" />
    <glyph glyph-name="quotesinglbase" unicode="&#x201a;" horiz-adv-x="220" 
d="M69 80h98l-88 -213h-68z" />
    <glyph glyph-name="quotedblleft" unicode="&#x201c;" horiz-adv-x="368" 
d="M134 475h-98l88 213h68zM284 475h-98l88 213h68z" />
    <glyph glyph-name="quotedblright" unicode="&#x201d;" horiz-adv-x="361" 
d="M248 688h98l-88 -213h-68zM98 688h98l-88 -213h-68z" />
    <glyph glyph-name="quotedblbase" unicode="&#x201e;" horiz-adv-x="370" 
d="M219 80h98l-88 -213h-68zM69 80h98l-88 -213h-68z" />
    <glyph glyph-name="dagger" unicode="&#x2020;" horiz-adv-x="435" 
d="M397 439h-149v-570h-61v570h-149v61h149v162h61v-162h149v-61z" />
    <glyph glyph-name="daggerdbl" unicode="&#x2021;" horiz-adv-x="455" 
d="M407 31h-149v-162h-61v162h-149v61h149v347h-149v61h149v162h61v-162h149v-61h-149v-347h149v-61z" />
    <glyph glyph-name="bullet" unicode="&#x2022;" horiz-adv-x="340" 
d="M36 320c0 37.333 13 69 39 95s57.667 39 95 39s69 -13 95 -39s39 -57.667 39 -95s-13 -69 -39 -95s-57.667 -39 -95 -39s-69 13 -95 39s-39 57.667 -39 95z" />
    <glyph glyph-name="ellipsis" unicode="&#x2026;" horiz-adv-x="787" 
d="M150 102v-102h-97v102h97zM442 102v-102h-97v102h97zM734 102v-102h-97v102h97z" />
    <glyph glyph-name="perthousand" unicode="&#x2030;" horiz-adv-x="1193" 
d="M343 470c0 -57.333 -13.502 -102.001 -40.502 -134.001s-63.667 -48 -110 -48s-82.833 16 -109.5 48s-40 79.167 -40 141.5s13.333 109.5 40 141.5s64.334 47.667 113.001 47s85.334 -19.167 110.001 -55.5s37 -83.166 37 -140.499zM192.998 344.999
c44.667 2 72.335 30.668 83.002 86.001c3.33301 15.333 5 30.666 5 45.999c0 44 -7.83301 77 -23.5 99s-37.334 33 -65.001 33s-49.334 -11 -65.001 -33s-23.5 -55 -23.5 -99s7.83301 -77 23.5 -99s37.5 -33 65.5 -33zM803.999 174
c0 -57.333 -13.502 -102.001 -40.502 -134.001s-63.667 -48 -110 -48s-82.833 16 -109.5 48s-40 79.167 -40 141.5s13.333 109.5 40 141.5s64.334 47.667 113.001 47s85.334 -19.167 110.001 -55.5s37 -83.166 37 -140.499zM653.997 48.999
c44.667 2 72.6689 30.668 84.002 86.001c2.66699 15.333 4 30.666 4 45.999c0 44 -7.83301 77 -23.5 99s-37.334 33 -65.001 33s-49.334 -11 -65.001 -33s-23.5 -55 -23.5 -99s7.83301 -77 23.5 -99s37.5 -33 65.5 -33zM683.999 670l-459 -682h-63l459 682h63zM1152 174
c0 -57.333 -13.502 -102.001 -40.502 -134.001s-63.667 -48 -110 -48s-82.833 16 -109.5 48s-40 79.167 -40 141.5s13.333 109.5 40 141.5s64.334 47.667 113.001 47s85.334 -19.167 110.001 -55.5s37 -83.166 37 -140.499zM1002 48.999
c44.667 2 72.6689 30.668 84.002 86.001c2.66699 15.333 4 30.666 4 45.999c0 44 -7.83301 77 -23.5 99s-37.334 33 -65.001 33s-49.334 -11 -65.001 -33s-23.5 -55 -23.5 -99s7.83301 -77 23.5 -99s37.5 -33 65.5 -33z" />
    <glyph glyph-name="guilsinglleft" unicode="&#x2039;" horiz-adv-x="303" 
d="M121 259l137 -202h-89l-130 202l130 202h89z" />
    <glyph glyph-name="guilsinglright" unicode="&#x203a;" horiz-adv-x="303" 
d="M45 461h89l130 -202l-130 -202h-89l137 202z" />
    <glyph glyph-name="fraction" unicode="&#x2044;" horiz-adv-x="468" 
d="M-8 -14l420 688h64l-420 -688h-64z" />
    <glyph glyph-name="Euro" unicode="&#x20ac;" horiz-adv-x="613" 
d="M415 65c52 0 97.667 14.333 137 43l14 -72c-44.667 -29.333 -98.667 -44 -162 -44c-80.667 0 -144.667 25.333 -192 76c-42.667 46 -69.667 107.333 -81 184h-89l22 54h62c-0.666992 4.66699 -1 9 -1 13v20c0 9.33301 0.666992 21.333 2 36h-85l22 54h70
c22.667 112.667 77.334 186.667 164.001 222c30.667 12.667 64 19 100 19c61.333 0 113.666 -12.333 156.999 -37l-27 -68c-28 21.333 -68 32 -120 32c-84.667 0 -143.334 -34 -176.001 -102c-10 -20.667 -17.333 -42.667 -22 -66h264l-21 -54h-251
c-1.33301 -14.667 -2 -26.667 -2 -36v-20c0 -4 0.333008 -8.33301 1 -13h225l-21 -54h-199c22.667 -124.667 92.334 -187 209.001 -187z" />
    <glyph glyph-name="trademark" unicode="&#x2122;" horiz-adv-x="815" 
d="M62 615v47h286v-47h-119v-302h-49v302h-118zM689 662h51v-349h-49v269l-116 -149l-118 149v-269h-49v349h52l115 -153z" />
    <glyph glyph-name="partialdiff" unicode="&#x2202;" horiz-adv-x="603" 
d="M308 658c-46.667 0 -88.001 -18.001 -124.001 -54.001l-41 34c50 54.667 111.333 82.667 184 84c74 1.33301 130.667 -25.667 170 -81c35.333 -50 53 -117 53 -201c0 -65.333 -10 -130.666 -30 -195.999c-36.667 -116.667 -97.334 -194 -182.001 -232
c-30.667 -13.333 -62.5 -20 -95.5 -20s-61.333 4.33301 -85 13s-44.167 21 -61.5 37c-36.667 32.667 -55 75 -55 127c0 70.667 27.667 131 83 181c52.667 48 114 72 184 72c40.667 0 73.334 -6 98.001 -18s46.667 -26.667 66 -44c4 20 6 45.667 6 77s-2.66699 61 -8 89
s-14.666 51.667 -27.999 71c-27.333 40.667 -72 61 -134 61zM133.999 249.999c-10.667 -20.667 -16 -45.998 -16 -75.998s12.167 -55.667 36.5 -77s53 -32 86 -32s61 6.16699 84 18.5s43.5 29.166 61.5 50.499c36 42.667 60.333 97 73 163
c-18 15.333 -39.167 28.166 -63.5 38.499s-52 15.5 -83 15.5s-57.333 -4.16699 -79 -12.5s-41 -20 -58 -35s-30.833 -32.833 -41.5 -53.5z" />
    <glyph glyph-name="Delta" unicode="&#x2206;" horiz-adv-x="579" 
d="M314 662l231 -662h-511l234 662h46zM107 71h332l-161 488z" />
    <glyph glyph-name="product" unicode="&#x220f;" horiz-adv-x="671" 
d="M77 -180v928h517v-928h-73v862h-370v-862h-74z" />
    <glyph glyph-name="summation" unicode="&#x2211;" horiz-adv-x="653" 
d="M606 675h-463l335 -391l-335 -391h463v-73h-564v67l333 397l-333 398v66h564v-73z" />
    <glyph glyph-name="minus" unicode="&#x2212;" 
d="M500 203h-450v65h450v-65z" />
    <glyph glyph-name="radical" unicode="&#x221a;" horiz-adv-x="672" 
d="M397 -163h-87l-168 372l-117 -45l-22 56l188 74l167 -376l255 822l56 -17z" />
    <glyph glyph-name="infinity" unicode="&#x221e;" horiz-adv-x="751" 
d="M198 414c61.333 0 120.666 -38.666 177.999 -115.999c36.667 53.333 78.667 88.666 126 105.999c16.667 6.66699 36 10 58 10s42.667 -5 62 -15s35.333 -23 48 -39c23.333 -30 35 -65 35 -105c0 -41.333 -11.667 -76.666 -35 -105.999
c-28.667 -35.333 -67.667 -53 -117 -53c-48 0 -95 24 -141 72c-13.333 14 -25.333 28.667 -36 44c-57.333 -77.333 -116.666 -116 -177.999 -116c-49.333 0 -88 17.667 -116 53c-24 29.333 -36 64.666 -36 105.999c0 40 12 75 36 105c28 36 66.667 54 116 54zM161 164.001
c12 -6.66699 25.166 -10 39.499 -10s28 2.83301 41 8.5s25.833 13.167 38.5 22.5c24.667 18 47 41.333 67 70c-31.333 44.667 -66.333 75.667 -105 93c-13.333 5.33301 -27.166 8 -41.499 8s-27.5 -3.16699 -39.5 -9.5s-22 -14.5 -30 -24.5c-15.333 -18 -23 -40.333 -23 -67
c0 -42.667 17.667 -73 53 -91zM549.999 154.001c14.667 0 27.999 3.16699 39.999 9.5s22 14.5 30 24.5c15.333 18 23 40.333 23 67c0 42.667 -17.667 73 -53 91c-12 6.66699 -25.167 10 -39.5 10s-28.166 -2.83301 -41.499 -8.5s-26.333 -13.167 -39 -22.5
c-27.333 -20.667 -49.333 -44 -66 -70c16.667 -26 38.667 -49.333 66 -70s54 -31 80 -31z" />
    <glyph glyph-name="integral" unicode="&#x222b;" horiz-adv-x="308" 
d="M121 637c0 86 34.333 133 103 141c20 2 42 3 66 3v-54c-40 0 -67.167 -6.5 -81.5 -19.5s-21.5 -36.833 -21.5 -71.5v-670c0 -86 -34.333 -132.667 -103 -140c-20 -2.66699 -42 -4 -66 -4v54c40 0 67.167 6.5 81.5 19.5s21.5 36.833 21.5 71.5v670z" />
    <glyph glyph-name="approxequal" unicode="&#x2248;" 
d="M60 119c10 89.333 47.3311 134 111.998 134c24.667 0 54.667 -7 90 -21l78.5 -30.5c17 -6.33301 32 -9.5 45 -9.5s24.167 3 33.5 9s16.666 13 21.999 21s9.16602 16 11.499 24s4.16602 14 5.49902 18h32c-6.66699 -38 -14.667 -65.167 -24 -81.5
s-20.666 -29.166 -33.999 -38.499s-29.833 -14 -49.5 -14s-39.5 3.16699 -59.5 9.5s-39.667 13.166 -59 20.499l-54.5 20.5c-17 6.33301 -32.167 9.5 -45.5 9.5s-24.666 -2.83301 -33.999 -8.5s-16.666 -12.5 -21.999 -20.5s-9.16602 -16 -11.499 -24
s-4.16602 -14 -5.49902 -18h-31zM60.998 276c10 89.333 47.3311 134 111.998 134c24.667 0 54.667 -7 90 -21l78.5 -30.5c17 -6.33301 32 -9.5 45 -9.5s24.167 3 33.5 9s16.666 13 21.999 21s9.16602 16 11.499 24s4.16602 14 5.49902 18h32
c-6.66699 -38 -14.667 -65.167 -24 -81.5s-20.666 -29.166 -33.999 -38.499s-29.833 -14 -49.5 -14s-39.5 3.16699 -59.5 9.5s-39.667 13.166 -59 20.499l-54.5 20.5c-17 6.33301 -32.167 9.5 -45.5 9.5s-24.666 -2.83301 -33.999 -8.5s-16.666 -12.5 -21.999 -20.5
s-9.16602 -16 -11.499 -24s-4.16602 -14 -5.49902 -18h-31z" />
    <glyph glyph-name="notequal" unicode="&#x2260;" 
d="M343 301l-69 -131h219v-67h-255l-70 -132l-53 28l55 104h-113v67h149l69 131h-218v67h254l70 131l53 -28l-55 -103h114v-67h-150z" />
    <glyph glyph-name="lessequal" unicode="&#x2264;" 
d="M512 434l-395 -138l395 -138v-78l-481 184v63l481 185v-78zM31 32h481v-66h-481v66z" />
    <glyph glyph-name="greaterequal" unicode="&#x2265;" 
d="M37 512l481 -185v-63l-481 -184v78l395 138l-395 138v78zM518 -34h-481v66h481v-66z" />
    <glyph glyph-name="lozenge" unicode="&#x25ca;" horiz-adv-x="618" 
d="M582 331l-234 -389h-78l-234 389l234 389h78zM500 331l-191 317l-191 -317l191 -317z" />
    <glyph glyph-name="f_f" unicode="&#xfb00;" horiz-adv-x="604" 
d="M577 637c-35.333 0 -61.833 -7.83105 -79.5 -23.498s-26.5 -40.834 -26.5 -75.501v-38h116v-66h-116v-434h-75v434h-222v-434h-75v434h-86v66h86v44c0 54.667 16.333 95.667 49 123s78 41 136 41h6v-71h-10c-35.333 0 -61.833 -7.83301 -79.5 -23.5
s-26.5 -40.834 -26.5 -75.501v-38h222v44c0 54.667 16.333 95.667 49 123s78 41 136 41h6v-71h-10z" />
    <glyph glyph-name="fi" unicode="&#xfb01;" horiz-adv-x="496" 
d="M356 434l-182 0.000976562v-434h-75v434h-86v66h86v44c0 54.667 16.333 95.667 49 123s78 41 136 41h6v-71h-10c-35.333 0 -61.833 -7.83301 -79.5 -23.5s-26.5 -40.834 -26.5 -75.501v-38h257v-500h-75v434zM434 682.001v-98h-81v98h81z" />
    <glyph glyph-name="fl" unicode="&#xfb02;" horiz-adv-x="496" 
d="M280 637c-35.333 0 -61.833 -7.83203 -79.5 -23.499s-26.5 -40.834 -26.5 -75.501v-38h116v-66h-116v-434h-75v434h-86v66h86v44c0 54.667 16.333 95.667 49 123s78 41 136 41h6v-71h-10zM431 0.000976562h-75v700h75v-700z" />
    <glyph glyph-name="f_f_i" unicode="&#xfb03;" horiz-adv-x="793" 
d="M653 434l-182 0.00195312v-434h-75v434h-222v-434h-75v434h-86v66h86v44c0 54.667 16.333 95.667 49 123s78 41 136 41h6v-71h-10c-35.333 0 -61.833 -7.83301 -79.5 -23.5s-26.5 -40.834 -26.5 -75.501v-38h222v44c0 54.667 16.333 95.667 49 123s78 41 136 41h6v-71
h-10c-35.333 0 -61.833 -7.83301 -79.5 -23.5s-26.5 -40.834 -26.5 -75.501v-38h257v-500h-75v434zM731 682.002v-98h-81v98h81z" />
    <glyph glyph-name="f_f_l" unicode="&#xfb04;" horiz-adv-x="793" 
d="M577 637c-35.333 0 -61.833 -7.83105 -79.5 -23.498s-26.5 -40.834 -26.5 -75.501v-38h116v-66h-116v-434h-75v434h-222v-434h-75v434h-86v66h86v44c0 54.667 16.333 95.667 49 123s78 41 136 41h6v-71h-10c-35.333 0 -61.833 -7.83301 -79.5 -23.5
s-26.5 -40.834 -26.5 -75.501v-38h222v44c0 54.667 16.333 95.667 49 123s78 41 136 41h6v-71h-10zM728 0.00195312h-75v700h75v-700z" />
    <glyph glyph-name=".null" horiz-adv-x="0" 
 />
    <glyph glyph-name="nonmarkingreturn" horiz-adv-x="333" 
 />
    <glyph glyph-name="uni00A0" horiz-adv-x="213" 
 />
    <glyph glyph-name="f_j" horiz-adv-x="497" 
d="M357 434l-183 0.000976562v-434h-75v434h-86v66h86v44c0 54.667 16.333 95.667 49 123s78 41 136 41h6v-71h-10c-35.333 0 -61.833 -7.83301 -79.5 -23.5s-26.5 -40.834 -26.5 -75.501v-38h258v-698h-75v632zM435 682.001v-98h-81v98h81z" />
    </font>
</defs>
</svg>
